<?xml version="1.0" encoding="UTF-8"?><svg id="Camada_1" xmlns="http://www.w3.org/2000/svg" xmlns:xlink="http://www.w3.org/1999/xlink" viewBox="0 0 435.45 259.47"><defs><style>.cls-1{fill:url(#Gradiente_sem_nome_12);}.cls-2{fill:url(#Gradiente_sem_nome_19);}</style><linearGradient id="Gradiente_sem_nome_12" x1="66.5" y1="101.92" x2="214.3" y2="101.92" gradientUnits="userSpaceOnUse"><stop offset="0" stop-color="#b60070"/><stop offset=".12" stop-color="#ac0076"/><stop offset=".31" stop-color="#930087"/><stop offset=".55" stop-color="#6900a4"/><stop offset=".84" stop-color="#3000ca"/><stop offset=".99" stop-color="#0f00e2"/></linearGradient><linearGradient id="Gradiente_sem_nome_19" x1="0" y1="129.73" x2="435.45" y2="129.73" gradientUnits="userSpaceOnUse"><stop offset="0" stop-color="#b60070"/><stop offset=".3" stop-color="#860090"/><stop offset=".99" stop-color="#0f00e2"/></linearGradient></defs><path class="cls-1" d="m121.96,156.91l-55.46,46.57V.35h132.46c5.53,0,10.64.43,15.34,1.28-15.06,9.58-22.68,26.79-22.68,51.27v5.86c-2.2-.97-4.94-1.69-8.2-2.17-.99-.24-2.47-.37-4.44-.37h-56.98v100.67s-.03.03-.04.04v-.02Z"/><path class="cls-2" d="m257.08,0c-13.57,0-23.31.99-29.23,2.96-1.24.41-2.44.86-3.6,1.35-17.09,7.23-25.63,23.43-25.63,48.6v67.43h-.03v60.95c0,1.48-.13,2.72-.37,3.7-.74,8.14-2.1,13.08-4.07,14.8-.66.66-1.5,1.24-2.53,1.72-2.77,1.32-6.86,1.98-12.27,1.98h-112.85L0,259.35s200.56.26,200.81,0c2.73,0,5.36-.12,7.88-.36,26.64-2.49,41.65-18.15,45.03-47,.16-1.36.29-2.6.4-3.75.23-2.41.34-4.37.34-5.87v-45.5h112.88v-55.87h-78.86l-34.02,28.49v-60.95s.02-.07.03-.1c1.48-8.38,7.77-12.58,18.87-12.58l95.53-.08L435.45.05l-178.37-.05Z"/></svg>