<?xml version="1.0" encoding="UTF-8"?><svg id="Layer_1" xmlns="http://www.w3.org/2000/svg" xmlns:xlink="http://www.w3.org/1999/xlink" viewBox="0 0 474.93 475.2"><defs><style>.cls-1{fill:url(#linear-gradient-2);}.cls-2{fill:url(#linear-gradient-6);}.cls-3{fill:url(#linear-gradient-10);}.cls-4{fill:url(#linear-gradient-5);}.cls-5{opacity:.14;}.cls-6{fill:url(#linear-gradient-7);}.cls-7{fill:url(#linear-gradient-9);}.cls-8{fill:url(#linear-gradient-3);}.cls-9{fill:url(#linear-gradient);}.cls-10{fill:url(#linear-gradient-4);}.cls-11{fill:url(#linear-gradient-8);}</style><linearGradient id="linear-gradient" x1="160.5" y1="177.4" x2="314.6" y2="177.4" gradientTransform="translate(474.93) rotate(-180) scale(1 -1)" gradientUnits="userSpaceOnUse"><stop offset="0" stop-color="#5300bc"/><stop offset=".48" stop-color="#5300bc" stop-opacity=".48"/><stop offset=".83" stop-color="#5300bc" stop-opacity=".14"/><stop offset="1" stop-color="#5300bc" stop-opacity="0"/></linearGradient><linearGradient id="linear-gradient-2" x1="129.55" y1="398.84" x2="345.68" y2="398.84" xlink:href="#linear-gradient"/><linearGradient id="linear-gradient-3" x1="34.87" y1="398.79" x2="198.05" y2="398.79" xlink:href="#linear-gradient"/><linearGradient id="linear-gradient-4" x1="277.23" y1="398.79" x2="439.64" y2="398.79" xlink:href="#linear-gradient"/><linearGradient id="linear-gradient-5" x1="342.61" y1="69.89" x2="474.93" y2="69.89" xlink:href="#linear-gradient"/><linearGradient id="linear-gradient-6" x1="0" y1="153.06" x2="121.4" y2="153.06" xlink:href="#linear-gradient"/><linearGradient id="linear-gradient-7" x1="191.61" y1="30.4" x2="283.58" y2="30.4" xlink:href="#linear-gradient"/><linearGradient id="linear-gradient-8" x1="134.97" y1="280.19" x2="170.34" y2="280.19" xlink:href="#linear-gradient"/><linearGradient id="linear-gradient-9" x1="305.21" y1="280.02" x2="340.17" y2="280.02" xlink:href="#linear-gradient"/><linearGradient id="linear-gradient-10" x1="185" y1="300.87" x2="289.82" y2="300.87" xlink:href="#linear-gradient"/></defs><g class="cls-5"><path class="cls-9" d="m237.25,278.97c17.71,0,35.41-.1,53.12.09,3.46.04,5-1.13,6.21-4.3,24.89-65.38,23.79-130.23-3.57-194.65-1.39-3.27-3.12-4.37-6.69-4.35-32.7.15-65.4.14-98.1.01-3.35-.01-5.03.95-6.37,4.11-27.5,64.57-28.56,129.56-3.58,195.09,1.26,3.31,3.06,4.11,6.35,4.08,17.55-.15,35.09-.07,52.64-.07Zm-.02-92.72c-20.04-.08-36.23-16.25-36.21-36.18.01-20.13,16.44-36.33,36.67-36.18,20.03.15,36.09,16.4,35.97,36.37-.12,19.9-16.47,36.06-36.43,35.98Z"/><path class="cls-1" d="m195.1,417.15c-12.78,1.35-20.04,8.29-22.45,19.56-6.91,0-13.7-1.07-20,.21-15.43,3.15-25.89,19.67-22.89,34.31.58,2.82,1.5,3.98,4.6,3.97,68.59-.09,137.17-.08,205.76-.01,2.88,0,4.12-.71,4.73-3.77,4-20.12-15.38-39.23-35.9-35.21-2.02.4-4,.96-6.51,1.57-2.75-11.86-9.75-19.32-23.02-20.58-1.55-8.19-3.15-16.57-4.72-24.96-4.11-21.92-8.3-43.83-12.2-65.79-.6-3.37-1.98-4-4.99-3.97-13.56.12-27.12.11-40.67,0-2.84-.02-4.09.62-4.67,3.76-5.19,28.53-10.6,57.01-15.96,85.51-.32,1.72-.7,3.43-1.11,5.39Z"/><path class="cls-8" d="m440.06,474.77c-12.75-20.85-30.74-32.24-54.39-35.56,5.69-17.74,2.85-33.72-10.51-46.7-13.25-12.87-29.18-15.25-46.75-9.17-.37-1.04-.78-1.86-.96-2.73-2.95-13.97-12.6-23.4-26.79-25.63-3.34-.52-4.78-1.55-5.37-5.07-1.5-9.07-3.58-18.04-5.43-27.09h-12.98c2.96,16,5.86,31.64,8.75,47.28,1.8,9.71,3.7,19.4,5.34,29.14.59,3.52,2.03,5.54,5.29,7.54,5.05,3.09,9.19,7.65,13.79,11.5,1.22,1.02,2.65,2.33,4.09,2.47,31.33,3.18,47.72,22.46,45.44,54.02h80.47Z"/><path class="cls-10" d="m197.7,322.75h-12.86c-1.95,9.53-3.82,19.02-5.9,28.46-.27,1.23-1.52,3.06-2.51,3.19-16.89,2.25-26.44,12.05-29.83,28.96-17.43-6.04-33.59-3.99-46.98,9.01-13.38,12.98-16.5,28.9-10.62,46.53-29.37,7.73-47.03,19.49-53.71,35.93h79.94c-1.82-12.36.15-23.75,7.25-33.88,8.45-12.07,20.04-18.97,34.85-19.8,3.8-.21,6.07-1.59,8.69-4.36,3.96-4.2,9.06-7.3,13.63-10.94,1.14-.91,2.79-1.94,3.02-3.14,5.08-26.42,9.98-52.87,15.04-79.96Z"/><path class="cls-4" d="m104.86,60.46c-1.06-10.51-4.65-15.68-12.41-17.44-2.39-.54-5.41-.89-7.43.12-4.39,2.18-7.43.47-11.2-1.54-14.45-7.7-29.01-7.17-42.59,1.9-13.37,8.93-19.47,21.9-18.37,38.08.03.46,0,.93,0,1.56C4.38,86.92-.61,93.02.06,103.48h4.71c39.56,0,79.12-.05,118.68.08,3.59.01,5.4-1.15,6.75-4.4,6.73-16.2-3.17-34.72-20.38-37.84-1.56-.28-3.13-.54-4.95-.86Z"/><path class="cls-2" d="m449.84,144.48c-1.39-13.83-9.17-19.03-21.64-15.1-1.3.41-3.27-.29-4.56-1.08-22.9-14.05-52.01-1.76-57.57,24.5-.81,3.84-.61,7.9-.91,12.43-5.68,2.59-10.29,6.77-11.47,13.92-.55,3.35.29,4.55,3.85,4.54,36.65-.1,73.3-.1,109.94.01,2.97,0,4.22-1.31,5.28-3.71,6.7-15.18-2.77-32.43-19.35-35.15-1.08-.18-2.19-.23-3.58-.37Z"/><path class="cls-6" d="m191.35,60.79h91.98c-12.43-22.86-27.64-42.77-45.99-60.79-18.35,18-33.42,37.95-45.99,60.79Z"/><path class="cls-11" d="m339.95,328.9c0-1.39,0-2.78,0-4.17,0-25.04.08-50.07-.13-75.11-.02-2.36-1.29-5.16-2.88-6.97-3.63-4.15-7.82-7.81-12.24-12.12-4.54,22.63-11.17,43.78-20.12,62.88,11.27,12.16,22.51,24.29,33.75,36.42.53-.31,1.07-.63,1.6-.94Z"/><path class="cls-7" d="m169.72,292.58c-8.55-18.08-15.23-39.33-19.61-61.34-.53-.39-1.05-.78-1.58-1.17-4.22,4.74-8.5,9.42-12.62,14.25-.73.86-1.12,2.29-1.12,3.46-.05,26.63-.03,53.26,0,79.88,0,.43.22.85.61,2.32,11.57-12.6,22.71-24.74,34.33-37.4Z"/><path class="cls-3" d="m289.93,294.1h-104.65c-.07.47-.22.8-.15,1.07q2.94,12.34,15.51,12.34c26.43,0,52.86-.1,79.28.11,4.26.03,6.45-1.22,7.36-5.32.58-2.61,1.63-5.11,2.65-8.2Z"/></g></svg>