<?xml version="1.0" encoding="utf-8"?>
<!-- Generator: Adobe Illustrator 27.8.1, SVG Export Plug-In . SVG Version: 6.00 Build 0)  -->
<svg version="1.1" id="Layer_1" xmlns="http://www.w3.org/2000/svg" xmlns:xlink="http://www.w3.org/1999/xlink" x="0px" y="0px"
	 viewBox="0 0 269.4 491.2" style="enable-background:new 0 0 269.4 491.2;" xml:space="preserve">
<style type="text/css">
	.st0{opacity:0.2;}
	.st1{fill:url(#SVGID_1_);}
</style>
<g class="st0">
	
		<linearGradient id="SVGID_1_" gradientUnits="userSpaceOnUse" x1="-1.191698e-03" y1="-2877.6038" x2="269.4" y2="-2877.6038" gradientTransform="matrix(1 0 0 -1 0 -2632)">
		<stop  offset="0" style="stop-color:#FF00CF"/>
		<stop  offset="0.1" style="stop-color:#E010CB;stop-opacity:0.88"/>
		<stop  offset="0.44" style="stop-color:#8142BE;stop-opacity:0.51"/>
		<stop  offset="0.71" style="stop-color:#3B66B5;stop-opacity:0.23"/>
		<stop  offset="0.9" style="stop-color:#107DB0;stop-opacity:6.000000e-02"/>
		<stop  offset="1" style="stop-color:#0086AE;stop-opacity:0"/>
	</linearGradient>
	<path class="st1" d="M225,0c10,2.5,19.4,5.8,27.2,13c10.1,9.3,16.1,20.5,17,34.2c0.1,2.1,0.2,4.2,0.2,6.2
		c-0.1,128.3-0.1,256.6-0.2,385c0,23.3-13.7,42.8-35.2,49.5c-6.1,1.9-12.9,2.7-19.3,2.8c-53.1,0.2-106.1-0.4-159.2,0.5
		C24.8,491.7-0.2,467.6,0,435.9C0.8,341.5,0.3,247,0.3,152.6c0-32.6,0.6-65.2-0.2-97.8C-0.7,26.6,19.9,4.4,44.5,0.7
		c0.4-0.1,0.8-0.5,1.2-0.7H225z M245.5,73.1h-218V414h218.1V73.1H245.5z M134,475.7c12.5-0.1,22.8-10.5,22.8-22.9
		s-10.4-22.9-22.9-23c-12.6-0.1-23.2,10.6-23,23.2C111.1,465.5,121.5,475.7,134,475.7L134,475.7L134,475.7z M135.4,46
		c7.5,0,15,0.1,22.5,0c5.7-0.1,9.1-3,9.2-7.6c0-4.6-3.4-7.7-9-7.7c-15-0.1-30-0.1-45,0c-5.7,0-9.1,2.9-9.1,7.6s3.3,7.7,9,7.7
		C120.3,46.1,127.9,46,135.4,46L135.4,46z M95.5,38.5c0-4.1-3.7-7.5-7.8-7.4c-4,0.1-7.3,3.4-7.4,7.4c-0.1,4.1,3.4,7.6,7.6,7.6
		S95.5,42.6,95.5,38.5L95.5,38.5z"/>
</g>
</svg>
