<?xml version="1.0" encoding="UTF-8"?><svg id="Layer_1" xmlns="http://www.w3.org/2000/svg" xmlns:xlink="http://www.w3.org/1999/xlink" viewBox="0 0 269.4 491.21"><defs><style>.cls-1{opacity:.14;}.cls-2{fill:url(#linear-gradient);}</style><linearGradient id="linear-gradient" x1="0" y1="3097.6" x2="269.4" y2="3097.6" gradientTransform="translate(0 -2852)" gradientUnits="userSpaceOnUse"><stop offset="0" stop-color="#5300bc"/><stop offset=".48" stop-color="#5300bc" stop-opacity=".48"/><stop offset=".83" stop-color="#5300bc" stop-opacity=".14"/><stop offset="1" stop-color="#5300bc" stop-opacity="0"/></linearGradient></defs><g class="cls-1"><path class="cls-2" d="m225,0c10,2.5,19.4,5.8,27.2,13,10.1,9.3,16.1,20.5,17,34.2.1,2.1.2,4.2.2,6.2-.1,128.3-.1,256.6-.2,385,0,23.3-13.7,42.8-35.2,49.5-6.1,1.9-12.9,2.7-19.3,2.8-53.1.2-106.1-.4-159.2.5C24.8,491.7-.2,467.6,0,435.9c.8-94.4.3-188.9.3-283.3C.3,120,.9,87.4.1,54.8-.7,26.6,19.9,4.4,44.5.7c.4-.1.8-.5,1.2-.7h179.3Zm20.5,73.1H27.5v340.9h218.1V73.1h-.1Zm-111.5,402.6c12.5-.1,22.8-10.5,22.8-22.9s-10.4-22.9-22.9-23c-12.6-.1-23.2,10.6-23,23.2.2,12.5,10.6,22.7,23.1,22.7h0Zm1.4-429.7c7.5,0,15,.1,22.5,0,5.7-.1,9.1-3,9.2-7.6,0-4.6-3.4-7.7-9-7.7-15-.1-30-.1-45,0-5.7,0-9.1,2.9-9.1,7.6s3.3,7.7,9,7.7c7.3.1,14.9,0,22.4,0h0Zm-39.9-7.5c0-4.1-3.7-7.5-7.8-7.4-4,.1-7.3,3.4-7.4,7.4-.1,4.1,3.4,7.6,7.6,7.6s7.6-3.5,7.6-7.6h0Z"/></g></svg>