<?xml version="1.0" encoding="utf-8"?>
<!-- Generator: Adobe Illustrator 27.8.1, SVG Export Plug-In . SVG Version: 6.00 Build 0)  -->
<svg version="1.1" id="Layer_1" xmlns="http://www.w3.org/2000/svg" xmlns:xlink="http://www.w3.org/1999/xlink" x="0px" y="0px"
	 viewBox="0 0 505.1 489.2" style="enable-background:new 0 0 505.1 489.2;" xml:space="preserve">
<style type="text/css">
	.st0{opacity:0.3;}
	.st1{fill:url(#SVGID_1_);}
	.st2{fill:url(#SVGID_00000086679710715702705950000004859236261699803803_);}
	.st3{fill:url(#SVGID_00000046301724443123107660000015128088658154167217_);}
	.st4{fill:url(#SVGID_00000118394325704228731420000011646464843396027314_);}
</style>
<g class="st0">
	
		<linearGradient id="SVGID_1_" gradientUnits="userSpaceOnUse" x1="-2729.0813" y1="-1434.5751" x2="-2486.3677" y2="-1434.5751" gradientTransform="matrix(-1 0 0 -1 -2354.8433 -1212)">
		<stop  offset="0" style="stop-color:#FF00CF"/>
		<stop  offset="0.1" style="stop-color:#E010CB;stop-opacity:0.88"/>
		<stop  offset="0.44" style="stop-color:#8142BE;stop-opacity:0.51"/>
		<stop  offset="0.71" style="stop-color:#3B66B5;stop-opacity:0.23"/>
		<stop  offset="0.9" style="stop-color:#107DB0;stop-opacity:6.000000e-02"/>
		<stop  offset="1" style="stop-color:#0086AE;stop-opacity:0"/>
	</linearGradient>
	<path class="st1" d="M258.3,168.5c0,28.9,0.1,57.7-0.1,86.6c0,4.3,1.3,6.9,5.3,9c9,4.9,13.2,15.1,10.6,24.7
		c-2.6,9.8-11.2,16.6-21.2,16.6c-10.2,0.1-19-6.7-21.7-16.7c-2.5-9.6,1.7-19.8,10.7-24.7c3.7-2,5.2-4.4,5.2-8.6
		C247,197.2,247,139,247,80.8c0-0.8,0.3-1.8-0.1-2.3c-1.2-1.8-2.4-4.7-4-5c-1.9-0.3-5.1,1-6.2,2.7c-2.6,3.7-4.3,8.1-6.3,12.2
		c-32.4,64.7-64.7,129.5-97.2,194.2c-2.3,4.7-2.2,8.2,0.1,12.8c12.3,24.1,24.4,48.4,36.4,72.7c1.5,3,3.1,4,6.5,4
		c51.1-0.1,102.2-0.1,153.2,0c3.1,0,4.8-0.9,6.2-3.7c12.3-25,24.8-49.9,37.4-74.8c1.7-3.3,1.6-6.1,0-9.4
		c-34.4-68.7-68.8-137.4-103.1-206.1c-1.6-3.2-3.4-5.9-7.6-4.8c-3.9,1.1-4,4.3-4,7.6C258.3,110.1,258.3,139.3,258.3,168.5z"/>
	
		<linearGradient id="SVGID_00000175288450159661908710000003839566093014878092_" gradientUnits="userSpaceOnUse" x1="-2806.8877" y1="-1337.6067" x2="-2408.0422" y2="-1337.6067" gradientTransform="matrix(-1 0 0 -1 -2354.8433 -1212)">
		<stop  offset="0" style="stop-color:#FF00CF"/>
		<stop  offset="0.1" style="stop-color:#E010CB;stop-opacity:0.88"/>
		<stop  offset="0.44" style="stop-color:#8142BE;stop-opacity:0.51"/>
		<stop  offset="0.71" style="stop-color:#3B66B5;stop-opacity:0.23"/>
		<stop  offset="0.9" style="stop-color:#107DB0;stop-opacity:6.000000e-02"/>
		<stop  offset="1" style="stop-color:#0086AE;stop-opacity:0"/>
	</linearGradient>
	<path style="fill:url(#SVGID_00000175288450159661908710000003839566093014878092_);" d="M424.3,200.3c-3.8,0-6.9,0-10,0
		c-4.2,0.1-6.5,2.1-6.5,6.5c0,10.5,0,20.9,0,31.4c0,4.3,2.2,6.4,6.5,6.4c10.5,0,20.9,0,31.4,0c4,0,6.3-2.1,6.3-6.1
		c0.1-10.6,0-21.3,0-31.9c0-4.4-2.4-6.3-6.6-6.3c-3.1,0-6.3,0-9.5,0c-6.1-78.9-45.1-134-117.6-165.7c30,0,59.8,0,90.1,0
		c0.3,0.8,0.8,1.9,1.3,3c4.5,9.8,14.8,14.9,25.1,12.7c10-2.2,17.3-11.4,17.2-21.8c0-10.4-7.2-19.3-17.4-21.5
		c-10-2.2-20.4,2.9-24.7,12.5c-1.2,2.8-2.7,3.6-5.6,3.6C362.6,23,320.9,23,279.2,23c-1.3,0-2.5-0.1-4.4-0.2c0-3.2,0.1-6.4,0-9.5
		c-0.1-4.9-1.7-6.7-6.5-6.7c-10.3-0.1-20.6-0.1-30.9,0c-4.8,0-6.5,1.8-6.7,6.6c-0.1,3,0,6,0,9.5c-1.9,0.1-3.6,0.3-5.3,0.3
		c-41.3,0-82.5,0-123.8,0.1c-3.1,0-4.9-0.5-6.4-3.9C91,9.6,80.3,4.7,70.4,7C60.2,9.5,53.1,18.5,53.2,28.8
		c0.1,10.2,7.3,19.1,17.1,21.4c10.1,2.3,20.7-2.6,24.9-12.1c1.4-3.2,3.1-4,6.3-3.9c28.4,0.1,56.8,0.1,86.3,0.1
		C114.6,66.2,75.6,121.4,69.4,200.4c-3.1,0-6.2,0-9.3,0c-4.5,0-6.8,2.1-6.8,6.7c0,10.3-0.1,20.6,0,30.9c0.1,4.8,1.9,6.7,6.7,6.7
		c10.3,0.1,20.6,0.1,30.9,0c4.7,0,6.5-2,6.6-6.8c0.1-10.2,0.1-20.3,0-30.5c0-5.2-1.7-6.9-6.8-7c-3-0.1-6,0-9.6,0
		C82.9,157.2,97.9,120,127,88.7c27.9-30,62.4-47.3,103.6-53c0,3.5,0,6.1,0,8.8c0,4.1,1.9,6.2,6.1,6.2c10.6,0,21.3,0,31.9,0
		c4.1,0,6.2-2,6.2-6.1c0-2.7,0-5.3,0-8.8c39.3,5.2,72.5,21.4,99.9,49.1C406.1,116.5,422.3,155.1,424.3,200.3z"/>
	
		<linearGradient id="SVGID_00000125565203595704734190000015788043266202868400_" gradientUnits="userSpaceOnUse" x1="-2707.2434" y1="-1617.25" x2="-2507.6685" y2="-1617.25" gradientTransform="matrix(-1 0 0 -1 -2354.8433 -1212)">
		<stop  offset="0" style="stop-color:#FF00CF"/>
		<stop  offset="0.1" style="stop-color:#E010CB;stop-opacity:0.88"/>
		<stop  offset="0.44" style="stop-color:#8142BE;stop-opacity:0.51"/>
		<stop  offset="0.71" style="stop-color:#3B66B5;stop-opacity:0.23"/>
		<stop  offset="0.9" style="stop-color:#107DB0;stop-opacity:6.000000e-02"/>
		<stop  offset="1" style="stop-color:#0086AE;stop-opacity:0"/>
	</linearGradient>
	<path style="fill:url(#SVGID_00000125565203595704734190000015788043266202868400_);" d="M253,427.4c30.3,0,60.6,0,90.8,0
		c7,0,8.6-1.5,8.6-8.7c0-9.4,0-18.7,0-28.1c0-5.6-1.8-7.5-7.4-7.5c-61.7,0-123.3,0-185,0c-5.3,0-7.1,1.9-7.1,7.3
		c-0.1,9.8-0.1,19.7,0,29.5c0,5.7,1.9,7.5,7.8,7.5C191.5,427.4,222.2,427.4,253,427.4z"/>
	
		<linearGradient id="SVGID_00000019676930906084671550000016713144167288918424_" gradientUnits="userSpaceOnUse" x1="-2690.5435" y1="-1672.8" x2="-2524.5435" y2="-1672.8" gradientTransform="matrix(-1 0 0 -1 -2354.8433 -1212)">
		<stop  offset="0" style="stop-color:#FF00CF"/>
		<stop  offset="0.1" style="stop-color:#E010CB;stop-opacity:0.88"/>
		<stop  offset="0.44" style="stop-color:#8142BE;stop-opacity:0.51"/>
		<stop  offset="0.71" style="stop-color:#3B66B5;stop-opacity:0.23"/>
		<stop  offset="0.9" style="stop-color:#107DB0;stop-opacity:6.000000e-02"/>
		<stop  offset="1" style="stop-color:#0086AE;stop-opacity:0"/>
	</linearGradient>
	<path style="fill:url(#SVGID_00000019676930906084671550000016713144167288918424_);" d="M335.5,438.8c-55.5,0-110.3,0-165.6,0
		c-0.1,1.7-0.2,3.2-0.2,4.8c0,10.2,0,20.3,0,30.5c0,7.6,1.1,8.7,8.9,8.7c1.1,0,2.2,0,3.3,0c48.2,0,96.4,0,144.7,0c8.1,0,9.1-1,9.1-9
		c0-10.2,0-20.3,0-30.5C335.6,441.8,335.5,440.3,335.5,438.8z"/>
</g>
</svg>
