<?xml version="1.0" encoding="utf-8"?>
<!-- Generator: Adobe Illustrator 27.8.1, SVG Export Plug-In . SVG Version: 6.00 Build 0)  -->
<svg version="1.1" id="Layer_1" xmlns="http://www.w3.org/2000/svg" xmlns:xlink="http://www.w3.org/1999/xlink" x="0px" y="0px"
	 viewBox="0 0 474.9 475.2" style="enable-background:new 0 0 474.9 475.2;" xml:space="preserve">
<style type="text/css">
	.st0{opacity:0.2;}
	.st1{fill:url(#SVGID_1_);}
	.st2{fill:url(#SVGID_00000070093219730220415270000000840718418326064828_);}
	.st3{fill:url(#SVGID_00000132802802533234946020000016885856236246776497_);}
	.st4{fill:url(#SVGID_00000124872331214377766430000015694831502715764104_);}
	.st5{fill:url(#SVGID_00000094606168170153185050000007694793038357552258_);}
	.st6{fill:url(#SVGID_00000087393831301465396390000013118829394049966742_);}
	.st7{fill:url(#SVGID_00000036208980441447492720000008973344526065588644_);}
	.st8{fill:url(#SVGID_00000088841151190018919890000015046289727821768071_);}
	.st9{fill:url(#SVGID_00000036220285803482307040000017241870154763846051_);}
	.st10{fill:url(#SVGID_00000006686891523250187730000015366512371850740374_);}
</style>
<g class="st0">
	
		<linearGradient id="SVGID_1_" gradientUnits="userSpaceOnUse" x1="-2509.4221" y1="10.4531" x2="-2355.2432" y2="10.4531" gradientTransform="matrix(-1 0 0 -1 -2195.0701 188)">
		<stop  offset="0" style="stop-color:#FF00CF"/>
		<stop  offset="0.1" style="stop-color:#E010CB;stop-opacity:0.88"/>
		<stop  offset="0.44" style="stop-color:#8142BE;stop-opacity:0.51"/>
		<stop  offset="0.71" style="stop-color:#3B66B5;stop-opacity:0.23"/>
		<stop  offset="0.9" style="stop-color:#107DB0;stop-opacity:6.000000e-02"/>
		<stop  offset="1" style="stop-color:#0086AE;stop-opacity:0"/>
	</linearGradient>
	<path class="st1" d="M237.2,279c17.7,0,35.4-0.1,53.1,0.1c3.5,0,5-1.1,6.2-4.3c24.9-65.4,23.8-130.2-3.6-194.6
		c-1.4-3.3-3.1-4.4-6.7-4.3c-32.7,0.2-65.4,0.1-98.1,0c-3.4,0-5,0.9-6.4,4.1c-27.5,64.6-28.6,129.6-3.6,195.1
		c1.3,3.3,3.1,4.1,6.4,4.1C202.2,278.9,219.7,279,237.2,279L237.2,279z M237.2,186.2c-20-0.1-36.2-16.2-36.2-36.2
		c0-20.1,16.4-36.3,36.7-36.2c20,0.2,36.1,16.4,36,36.4C273.5,170.2,257.2,186.3,237.2,186.2L237.2,186.2z"/>
	
		<linearGradient id="SVGID_00000122686699001579537170000003476309240044885903_" gradientUnits="userSpaceOnUse" x1="-2540.4978" y1="-210.8" x2="-2324.3577" y2="-210.8" gradientTransform="matrix(-1 0 0 -1 -2195.0701 188)">
		<stop  offset="0" style="stop-color:#FF00CF"/>
		<stop  offset="0.1" style="stop-color:#E010CB;stop-opacity:0.88"/>
		<stop  offset="0.44" style="stop-color:#8142BE;stop-opacity:0.51"/>
		<stop  offset="0.71" style="stop-color:#3B66B5;stop-opacity:0.23"/>
		<stop  offset="0.9" style="stop-color:#107DB0;stop-opacity:6.000000e-02"/>
		<stop  offset="1" style="stop-color:#0086AE;stop-opacity:0"/>
	</linearGradient>
	<path style="fill:url(#SVGID_00000122686699001579537170000003476309240044885903_);" d="M195.1,417.1c-12.8,1.4-20,8.3-22.4,19.6
		c-6.9,0-13.7-1.1-20,0.2c-15.4,3.1-25.9,19.7-22.9,34.3c0.6,2.8,1.5,4,4.6,4c68.6-0.1,137.2-0.1,205.8,0c2.9,0,4.1-0.7,4.7-3.8
		c4-20.1-15.4-39.2-35.9-35.2c-2,0.4-4,1-6.5,1.6c-2.8-11.9-9.8-19.3-23-20.6c-1.5-8.2-3.1-16.6-4.7-25
		c-4.1-21.9-8.3-43.8-12.2-65.8c-0.6-3.4-2-4-5-4c-13.6,0.1-27.1,0.1-40.7,0c-2.8,0-4.1,0.6-4.7,3.8c-5.2,28.5-10.6,57-16,85.5
		C195.9,413.5,195.5,415.2,195.1,417.1L195.1,417.1z"/>
	
		<linearGradient id="SVGID_00000070832429001355222060000002457166309330216342_" gradientUnits="userSpaceOnUse" x1="-2635.1702" y1="-210.8" x2="-2471.8701" y2="-210.8" gradientTransform="matrix(-1 0 0 -1 -2195.0701 188)">
		<stop  offset="0" style="stop-color:#FF00CF"/>
		<stop  offset="0.1" style="stop-color:#E010CB;stop-opacity:0.88"/>
		<stop  offset="0.44" style="stop-color:#8142BE;stop-opacity:0.51"/>
		<stop  offset="0.71" style="stop-color:#3B66B5;stop-opacity:0.23"/>
		<stop  offset="0.9" style="stop-color:#107DB0;stop-opacity:6.000000e-02"/>
		<stop  offset="1" style="stop-color:#0086AE;stop-opacity:0"/>
	</linearGradient>
	<path style="fill:url(#SVGID_00000070832429001355222060000002457166309330216342_);" d="M440.1,474.8
		c-12.8-20.9-30.7-32.2-54.4-35.6c5.7-17.7,2.9-33.7-10.5-46.7c-13.2-12.9-29.2-15.2-46.8-9.2c-0.4-1-0.8-1.9-1-2.7
		c-3-14-12.6-23.4-26.8-25.6c-3.3-0.5-4.8-1.5-5.4-5.1c-1.5-9.1-3.6-18-5.4-27.1h-13c3,16,5.9,31.6,8.8,47.3
		c1.8,9.7,3.7,19.4,5.3,29.1c0.6,3.5,2,5.5,5.3,7.5c5,3.1,9.2,7.6,13.8,11.5c1.2,1,2.6,2.3,4.1,2.5c31.3,3.2,47.7,22.5,45.4,54
		L440.1,474.8L440.1,474.8z"/>
	
		<linearGradient id="SVGID_00000088131154326726616240000011259895259249935235_" gradientUnits="userSpaceOnUse" x1="-2392.77" y1="-210.85" x2="-2230.3701" y2="-210.85" gradientTransform="matrix(-1 0 0 -1 -2195.0701 188)">
		<stop  offset="0" style="stop-color:#FF00CF"/>
		<stop  offset="0.1" style="stop-color:#E010CB;stop-opacity:0.88"/>
		<stop  offset="0.44" style="stop-color:#8142BE;stop-opacity:0.51"/>
		<stop  offset="0.71" style="stop-color:#3B66B5;stop-opacity:0.23"/>
		<stop  offset="0.9" style="stop-color:#107DB0;stop-opacity:6.000000e-02"/>
		<stop  offset="1" style="stop-color:#0086AE;stop-opacity:0"/>
	</linearGradient>
	<path style="fill:url(#SVGID_00000088131154326726616240000011259895259249935235_);" d="M197.7,322.8h-12.9
		c-1.9,9.5-3.8,19-5.9,28.5c-0.3,1.2-1.5,3.1-2.5,3.2c-16.9,2.2-26.4,12-29.8,29c-17.4-6-33.6-4-47,9S83.1,421.4,89,439
		c-29.4,7.7-47,19.5-53.7,35.9h79.9c-1.8-12.4,0.2-23.8,7.2-33.9c8.4-12.1,20-19,34.9-19.8c3.8-0.2,6.1-1.6,8.7-4.4
		c4-4.2,9.1-7.3,13.6-10.9c1.1-0.9,2.8-1.9,3-3.1C187.8,376.3,192.7,349.8,197.7,322.8L197.7,322.8z"/>
	
		<linearGradient id="SVGID_00000175313299028394082390000003471203424699937204_" gradientUnits="userSpaceOnUse" x1="-2327.4819" y1="118.0411" x2="-2195.105" y2="118.0411" gradientTransform="matrix(-1 0 0 -1 -2195.0701 188)">
		<stop  offset="0" style="stop-color:#FF00CF"/>
		<stop  offset="0.1" style="stop-color:#E010CB;stop-opacity:0.88"/>
		<stop  offset="0.44" style="stop-color:#8142BE;stop-opacity:0.51"/>
		<stop  offset="0.71" style="stop-color:#3B66B5;stop-opacity:0.23"/>
		<stop  offset="0.9" style="stop-color:#107DB0;stop-opacity:6.000000e-02"/>
		<stop  offset="1" style="stop-color:#0086AE;stop-opacity:0"/>
	</linearGradient>
	<path style="fill:url(#SVGID_00000175313299028394082390000003471203424699937204_);" d="M104.9,60.5c-1.1-10.5-4.7-15.7-12.4-17.4
		c-2.4-0.5-5.4-0.9-7.4,0.1c-4.4,2.2-7.4,0.5-11.2-1.5c-14.5-7.7-29-7.2-42.6,1.9c-13.4,8.9-19.5,21.9-18.4,38.1c0,0.5,0,0.9,0,1.6
		C4.4,86.9-0.6,93,0.1,103.5h4.7c39.6,0,79.1-0.1,118.7,0.1c3.6,0,5.4-1.2,6.8-4.4c6.7-16.2-3.2-34.7-20.4-37.8
		C108.3,61,106.7,60.8,104.9,60.5L104.9,60.5z"/>
	
		<linearGradient id="SVGID_00000089569515313534951900000017326769701702761371_" gradientUnits="userSpaceOnUse" x1="-2669.9368" y1="35.002" x2="-2548.5349" y2="35.002" gradientTransform="matrix(-1 0 0 -1 -2195.0701 188)">
		<stop  offset="0" style="stop-color:#FF00CF"/>
		<stop  offset="0.1" style="stop-color:#E010CB;stop-opacity:0.88"/>
		<stop  offset="0.44" style="stop-color:#8142BE;stop-opacity:0.51"/>
		<stop  offset="0.71" style="stop-color:#3B66B5;stop-opacity:0.23"/>
		<stop  offset="0.9" style="stop-color:#107DB0;stop-opacity:6.000000e-02"/>
		<stop  offset="1" style="stop-color:#0086AE;stop-opacity:0"/>
	</linearGradient>
	<path style="fill:url(#SVGID_00000089569515313534951900000017326769701702761371_);" d="M449.8,144.5c-1.4-13.8-9.2-19-21.6-15.1
		c-1.3,0.4-3.3-0.3-4.6-1.1c-22.9-14.1-52-1.8-57.6,24.5c-0.8,3.8-0.6,7.9-0.9,12.4c-5.7,2.6-10.3,6.8-11.5,13.9
		c-0.5,3.4,0.3,4.6,3.9,4.5c36.6-0.1,73.3-0.1,109.9,0c3,0,4.2-1.3,5.3-3.7c6.7-15.2-2.8-32.4-19.4-35.1
		C452.3,144.7,451.2,144.6,449.8,144.5L449.8,144.5z"/>
	
		<linearGradient id="SVGID_00000134212717744651397040000004082709126989075624_" gradientUnits="userSpaceOnUse" x1="-2478.47" y1="157.6" x2="-2386.47" y2="157.6" gradientTransform="matrix(-1 0 0 -1 -2195.0701 188)">
		<stop  offset="0" style="stop-color:#FF00CF"/>
		<stop  offset="0.1" style="stop-color:#E010CB;stop-opacity:0.88"/>
		<stop  offset="0.44" style="stop-color:#8142BE;stop-opacity:0.51"/>
		<stop  offset="0.71" style="stop-color:#3B66B5;stop-opacity:0.23"/>
		<stop  offset="0.9" style="stop-color:#107DB0;stop-opacity:6.000000e-02"/>
		<stop  offset="1" style="stop-color:#0086AE;stop-opacity:0"/>
	</linearGradient>
	<path style="fill:url(#SVGID_00000134212717744651397040000004082709126989075624_);" d="M191.4,60.8h92
		C270.9,37.9,255.7,18,237.3,0C219,18,203.9,38,191.4,60.8z"/>
	
		<linearGradient id="SVGID_00000023281041008688876340000005673069664846920852_" gradientUnits="userSpaceOnUse" x1="-2535.0349" y1="-92.15" x2="-2499.6499" y2="-92.15" gradientTransform="matrix(-1 0 0 -1 -2195.0701 188)">
		<stop  offset="0" style="stop-color:#FF00CF"/>
		<stop  offset="0.1" style="stop-color:#E010CB;stop-opacity:0.88"/>
		<stop  offset="0.44" style="stop-color:#8142BE;stop-opacity:0.51"/>
		<stop  offset="0.71" style="stop-color:#3B66B5;stop-opacity:0.23"/>
		<stop  offset="0.9" style="stop-color:#107DB0;stop-opacity:6.000000e-02"/>
		<stop  offset="1" style="stop-color:#0086AE;stop-opacity:0"/>
	</linearGradient>
	<path style="fill:url(#SVGID_00000023281041008688876340000005673069664846920852_);" d="M340,328.9c0-1.4,0-2.8,0-4.2
		c0-25,0.1-50.1-0.1-75.1c0-2.4-1.3-5.2-2.9-7c-3.6-4.1-7.8-7.8-12.2-12.1c-4.5,22.6-11.2,43.8-20.1,62.9
		c11.3,12.2,22.5,24.3,33.8,36.4C338.9,329.5,339.4,329.2,340,328.9L340,328.9z"/>
	
		<linearGradient id="SVGID_00000121959678725639900210000002255483202689373086_" gradientUnits="userSpaceOnUse" x1="-2364.77" y1="-92.05" x2="-2329.8257" y2="-92.05" gradientTransform="matrix(-1 0 0 -1 -2195.0701 188)">
		<stop  offset="0" style="stop-color:#FF00CF"/>
		<stop  offset="0.1" style="stop-color:#E010CB;stop-opacity:0.88"/>
		<stop  offset="0.44" style="stop-color:#8142BE;stop-opacity:0.51"/>
		<stop  offset="0.71" style="stop-color:#3B66B5;stop-opacity:0.23"/>
		<stop  offset="0.9" style="stop-color:#107DB0;stop-opacity:6.000000e-02"/>
		<stop  offset="1" style="stop-color:#0086AE;stop-opacity:0"/>
	</linearGradient>
	<path style="fill:url(#SVGID_00000121959678725639900210000002255483202689373086_);" d="M169.7,292.6
		c-8.6-18.1-15.2-39.3-19.6-61.3c-0.5-0.4-1.1-0.8-1.6-1.2c-4.2,4.7-8.5,9.4-12.6,14.2c-0.7,0.9-1.1,2.3-1.1,3.5
		c-0.1,26.6,0,53.3,0,79.9c0,0.4,0.2,0.9,0.6,2.3C147,317.4,158.1,305.2,169.7,292.6L169.7,292.6z"/>
	
		<linearGradient id="SVGID_00000064311813278466530620000009948740466468396202_" gradientUnits="userSpaceOnUse" x1="-2484.97" y1="-112.85" x2="-2380.2288" y2="-112.85" gradientTransform="matrix(-1 0 0 -1 -2195.0701 188)">
		<stop  offset="0" style="stop-color:#FF00CF"/>
		<stop  offset="0.1" style="stop-color:#E010CB;stop-opacity:0.88"/>
		<stop  offset="0.44" style="stop-color:#8142BE;stop-opacity:0.51"/>
		<stop  offset="0.71" style="stop-color:#3B66B5;stop-opacity:0.23"/>
		<stop  offset="0.9" style="stop-color:#107DB0;stop-opacity:6.000000e-02"/>
		<stop  offset="1" style="stop-color:#0086AE;stop-opacity:0"/>
	</linearGradient>
	<path style="fill:url(#SVGID_00000064311813278466530620000009948740466468396202_);" d="M289.9,294.1H185.3
		c-0.1,0.5-0.2,0.8-0.1,1.1c2,8.2,7.1,12.3,15.5,12.3c26.4,0,52.9-0.1,79.3,0.1c4.3,0,6.5-1.2,7.4-5.3
		C287.9,299.7,288.9,297.2,289.9,294.1L289.9,294.1z"/>
</g>
</svg>
