<?xml version="1.0" encoding="utf-8"?>
<!-- Generator: Adobe Illustrator 27.5.0, SVG Export Plug-In . SVG Version: 6.00 Build 0)  -->
<svg version="1.1" id="Layer_1" xmlns="http://www.w3.org/2000/svg" xmlns:xlink="http://www.w3.org/1999/xlink" x="0px" y="0px"
	 viewBox="0 0 474.9 475.2" style="enable-background:new 0 0 474.9 475.2;" xml:space="preserve">
<style type="text/css">
	.st0{opacity:0.14;}
	.st1{fill:url(#SVGID_1_);}
	.st2{fill:url(#SVGID_00000153705536402167763630000013400464165183503290_);}
	.st3{fill:url(#SVGID_00000143589633296390628630000006760585688849580682_);}
	.st4{fill:url(#SVGID_00000060027882982432909500000017389152720556082334_);}
	.st5{fill:url(#SVGID_00000153686974178315438090000008940863338324677005_);}
	.st6{fill:url(#SVGID_00000073710561092410173260000009317775534763778974_);}
	.st7{fill:url(#SVGID_00000003088644207710216540000017970404471893719731_);}
	.st8{fill:url(#SVGID_00000144310592225518060860000013998511460491987350_);}
	.st9{fill:url(#SVGID_00000137853123336933576280000017390630669138915994_);}
	.st10{fill:url(#SVGID_00000177485755941268222300000013011795419146945177_);}
</style>
<g class="st0">
	
		<linearGradient id="SVGID_1_" gradientUnits="userSpaceOnUse" x1="-729.4979" y1="300.5896" x2="-575.4115" y2="300.5896" gradientTransform="matrix(-1 0 0 -1 -415.07 478)">
		<stop  offset="0" style="stop-color:#6400E7"/>
		<stop  offset="0.48" style="stop-color:#6400E7;stop-opacity:0.48"/>
		<stop  offset="0.83" style="stop-color:#6400E7;stop-opacity:0.14"/>
		<stop  offset="1" style="stop-color:#6400E7;stop-opacity:0"/>
	</linearGradient>
	<path class="st1" d="M237.2,279c17.7,0,35.4-0.1,53.1,0.1c3.5,0,5-1.1,6.2-4.3c24.9-65.4,23.8-130.2-3.6-194.6
		c-1.4-3.3-3.1-4.4-6.7-4.3c-32.7,0.2-65.4,0.1-98.1,0c-3.4,0-5,0.9-6.4,4.1c-27.5,64.6-28.6,129.6-3.6,195.1
		c1.3,3.3,3.1,4.1,6.4,4.1C202.2,278.9,219.7,279,237.2,279L237.2,279z M237.2,186.2c-20-0.1-36.2-16.2-36.2-36.2
		c0-20.1,16.4-36.3,36.7-36.2c20,0.2,36.1,16.4,36,36.4C273.5,170.2,257.2,186.3,237.2,186.2L237.2,186.2z"/>
	
		<linearGradient id="SVGID_00000067926209718794296400000001606657293770038946_" gradientUnits="userSpaceOnUse" x1="-760.4481" y1="79.1605" x2="-544.3161" y2="79.1605" gradientTransform="matrix(-1 0 0 -1 -415.07 478)">
		<stop  offset="0" style="stop-color:#6400E7"/>
		<stop  offset="0.48" style="stop-color:#6400E7;stop-opacity:0.48"/>
		<stop  offset="0.83" style="stop-color:#6400E7;stop-opacity:0.14"/>
		<stop  offset="1" style="stop-color:#6400E7;stop-opacity:0"/>
	</linearGradient>
	<path style="fill:url(#SVGID_00000067926209718794296400000001606657293770038946_);" d="M195.1,417.1c-12.8,1.4-20,8.3-22.4,19.6
		c-6.9,0-13.7-1.1-20,0.2c-15.4,3.1-25.9,19.7-22.9,34.3c0.6,2.8,1.5,4,4.6,4c68.6-0.1,137.2-0.1,205.8,0c2.9,0,4.1-0.7,4.7-3.8
		c4-20.1-15.4-39.2-35.9-35.2c-2,0.4-4,1-6.5,1.6c-2.8-11.9-9.8-19.3-23-20.6c-1.5-8.2-3.1-16.6-4.7-25
		c-4.1-21.9-8.3-43.8-12.2-65.8c-0.6-3.4-2-4-5-4c-13.6,0.1-27.1,0.1-40.7,0c-2.8,0-4.1,0.6-4.7,3.8c-5.2,28.5-10.6,57-16,85.5
		C195.9,413.5,195.5,415.2,195.1,417.1L195.1,417.1z"/>
	
		<linearGradient id="SVGID_00000034087895692717788300000016213152664212545688_" gradientUnits="userSpaceOnUse" x1="-855.13" y1="79.205" x2="-691.95" y2="79.205" gradientTransform="matrix(-1 0 0 -1 -415.07 478)">
		<stop  offset="0" style="stop-color:#6400E7"/>
		<stop  offset="0.48" style="stop-color:#6400E7;stop-opacity:0.48"/>
		<stop  offset="0.83" style="stop-color:#6400E7;stop-opacity:0.14"/>
		<stop  offset="1" style="stop-color:#6400E7;stop-opacity:0"/>
	</linearGradient>
	<path style="fill:url(#SVGID_00000034087895692717788300000016213152664212545688_);" d="M440.1,474.8
		c-12.8-20.9-30.7-32.2-54.4-35.6c5.7-17.7,2.9-33.7-10.5-46.7c-13.2-12.9-29.2-15.2-46.8-9.2c-0.4-1-0.8-1.9-1-2.7
		c-3-14-12.6-23.4-26.8-25.6c-3.3-0.5-4.8-1.5-5.4-5.1c-1.5-9.1-3.6-18-5.4-27.1h-13c3,16,5.9,31.6,8.8,47.3
		c1.8,9.7,3.7,19.4,5.3,29.1c0.6,3.5,2,5.5,5.3,7.5c5,3.1,9.2,7.6,13.8,11.5c1.2,1,2.6,2.3,4.1,2.5c31.3,3.2,47.7,22.5,45.4,54
		L440.1,474.8L440.1,474.8z"/>
	
		<linearGradient id="SVGID_00000039131522203383155470000007913437656374854280_" gradientUnits="userSpaceOnUse" x1="-612.78" y1="79.21" x2="-450.36" y2="79.21" gradientTransform="matrix(-1 0 0 -1 -415.07 478)">
		<stop  offset="0" style="stop-color:#6400E7"/>
		<stop  offset="0.48" style="stop-color:#6400E7;stop-opacity:0.48"/>
		<stop  offset="0.83" style="stop-color:#6400E7;stop-opacity:0.14"/>
		<stop  offset="1" style="stop-color:#6400E7;stop-opacity:0"/>
	</linearGradient>
	<path style="fill:url(#SVGID_00000039131522203383155470000007913437656374854280_);" d="M197.7,322.8h-12.9
		c-1.9,9.5-3.8,19-5.9,28.5c-0.3,1.2-1.5,3.1-2.5,3.2c-16.9,2.2-26.4,12-29.8,29c-17.4-6-33.6-4-47,9c-13.4,13-16.5,28.9-10.6,46.5
		c-29.4,7.7-47,19.5-53.7,35.9h79.9c-1.8-12.4,0.2-23.8,7.2-33.9c8.4-12.1,20-19,34.9-19.8c3.8-0.2,6.1-1.6,8.7-4.4
		c4-4.2,9.1-7.3,13.6-10.9c1.1-0.9,2.8-1.9,3-3.1C187.8,376.3,192.7,349.8,197.7,322.8L197.7,322.8z"/>
	
		<linearGradient id="SVGID_00000035498678034605262430000018239640105593050553_" gradientUnits="userSpaceOnUse" x1="-547.3973" y1="408.1059" x2="-415.0701" y2="408.1059" gradientTransform="matrix(-1 0 0 -1 -415.07 478)">
		<stop  offset="0" style="stop-color:#6400E7"/>
		<stop  offset="0.48" style="stop-color:#6400E7;stop-opacity:0.48"/>
		<stop  offset="0.83" style="stop-color:#6400E7;stop-opacity:0.14"/>
		<stop  offset="1" style="stop-color:#6400E7;stop-opacity:0"/>
	</linearGradient>
	<path style="fill:url(#SVGID_00000035498678034605262430000018239640105593050553_);" d="M104.9,60.5c-1.1-10.5-4.7-15.7-12.4-17.4
		c-2.4-0.5-5.4-0.9-7.4,0.1c-4.4,2.2-7.4,0.5-11.2-1.5c-14.5-7.7-29-7.2-42.6,1.9c-13.4,8.9-19.5,21.9-18.4,38.1c0,0.5,0,0.9,0,1.6
		C4.4,86.9-0.6,93,0.1,103.5h4.7c39.6,0,79.1-0.1,118.7,0.1c3.6,0,5.4-1.2,6.8-4.4c6.7-16.2-3.2-34.7-20.4-37.8
		C108.3,61,106.7,60.8,104.9,60.5L104.9,60.5z"/>
	
		<linearGradient id="SVGID_00000016762988989405372240000006633746384789251511_" gradientUnits="userSpaceOnUse" x1="-890.0006" y1="324.9404" x2="-768.6058" y2="324.9404" gradientTransform="matrix(-1 0 0 -1 -415.07 478)">
		<stop  offset="0" style="stop-color:#6400E7"/>
		<stop  offset="0.48" style="stop-color:#6400E7;stop-opacity:0.48"/>
		<stop  offset="0.83" style="stop-color:#6400E7;stop-opacity:0.14"/>
		<stop  offset="1" style="stop-color:#6400E7;stop-opacity:0"/>
	</linearGradient>
	<path style="fill:url(#SVGID_00000016762988989405372240000006633746384789251511_);" d="M449.8,144.5c-1.4-13.8-9.2-19-21.6-15.1
		c-1.3,0.4-3.3-0.3-4.6-1.1c-22.9-14.1-52-1.8-57.6,24.5c-0.8,3.8-0.6,7.9-0.9,12.4c-5.7,2.6-10.3,6.8-11.5,13.9
		c-0.5,3.4,0.3,4.6,3.9,4.5c36.6-0.1,73.3-0.1,109.9,0c3,0,4.2-1.3,5.3-3.7c6.7-15.2-2.8-32.4-19.4-35.1
		C452.3,144.7,451.2,144.6,449.8,144.5L449.8,144.5z"/>
	
		<linearGradient id="SVGID_00000020398298676776735570000005811743605873010306_" gradientUnits="userSpaceOnUse" x1="-698.4" y1="447.605" x2="-606.42" y2="447.605" gradientTransform="matrix(-1 0 0 -1 -415.07 478)">
		<stop  offset="0" style="stop-color:#6400E7"/>
		<stop  offset="0.48" style="stop-color:#6400E7;stop-opacity:0.48"/>
		<stop  offset="0.83" style="stop-color:#6400E7;stop-opacity:0.14"/>
		<stop  offset="1" style="stop-color:#6400E7;stop-opacity:0"/>
	</linearGradient>
	<path style="fill:url(#SVGID_00000020398298676776735570000005811743605873010306_);" d="M191.4,60.8h92
		C270.9,37.9,255.7,18,237.3,0C219,18,203.9,38,191.4,60.8z"/>
	
		<linearGradient id="SVGID_00000018948668169835233840000007074051295000094630_" gradientUnits="userSpaceOnUse" x1="-755.035" y1="197.82" x2="-719.65" y2="197.82" gradientTransform="matrix(-1 0 0 -1 -415.07 478)">
		<stop  offset="0" style="stop-color:#6400E7"/>
		<stop  offset="0.48" style="stop-color:#6400E7;stop-opacity:0.48"/>
		<stop  offset="0.83" style="stop-color:#6400E7;stop-opacity:0.14"/>
		<stop  offset="1" style="stop-color:#6400E7;stop-opacity:0"/>
	</linearGradient>
	<path style="fill:url(#SVGID_00000018948668169835233840000007074051295000094630_);" d="M340,328.9c0-1.4,0-2.8,0-4.2
		c0-25,0.1-50.1-0.1-75.1c0-2.4-1.3-5.2-2.9-7c-3.6-4.1-7.8-7.8-12.2-12.1c-4.5,22.6-11.2,43.8-20.1,62.9
		c11.3,12.2,22.5,24.3,33.8,36.4C338.9,329.5,339.4,329.2,340,328.9L340,328.9z"/>
	
		<linearGradient id="SVGID_00000168817323477114469510000001472777526801207716_" gradientUnits="userSpaceOnUse" x1="-584.8" y1="197.975" x2="-549.8296" y2="197.975" gradientTransform="matrix(-1 0 0 -1 -415.07 478)">
		<stop  offset="0" style="stop-color:#6400E7"/>
		<stop  offset="0.48" style="stop-color:#6400E7;stop-opacity:0.48"/>
		<stop  offset="0.83" style="stop-color:#6400E7;stop-opacity:0.14"/>
		<stop  offset="1" style="stop-color:#6400E7;stop-opacity:0"/>
	</linearGradient>
	<path style="fill:url(#SVGID_00000168817323477114469510000001472777526801207716_);" d="M169.7,292.6
		c-8.6-18.1-15.2-39.3-19.6-61.3c-0.5-0.4-1.1-0.8-1.6-1.2c-4.2,4.7-8.5,9.4-12.6,14.2c-0.7,0.9-1.1,2.3-1.1,3.5
		c-0.1,26.6,0,53.3,0,79.9c0,0.4,0.2,0.9,0.6,2.3C147,317.4,158.1,305.2,169.7,292.6L169.7,292.6z"/>
	
		<linearGradient id="SVGID_00000029734774042213825760000014176459025887889289_" gradientUnits="userSpaceOnUse" x1="-705" y1="177.1398" x2="-600.1818" y2="177.1398" gradientTransform="matrix(-1 0 0 -1 -415.07 478)">
		<stop  offset="0" style="stop-color:#6400E7"/>
		<stop  offset="0.48" style="stop-color:#6400E7;stop-opacity:0.48"/>
		<stop  offset="0.83" style="stop-color:#6400E7;stop-opacity:0.14"/>
		<stop  offset="1" style="stop-color:#6400E7;stop-opacity:0"/>
	</linearGradient>
	<path style="fill:url(#SVGID_00000029734774042213825760000014176459025887889289_);" d="M289.9,294.1H185.3
		c-0.1,0.5-0.2,0.8-0.1,1.1c2,8.2,7.1,12.3,15.5,12.3c26.4,0,52.9-0.1,79.3,0.1c4.3,0,6.5-1.2,7.4-5.3
		C287.9,299.7,288.9,297.2,289.9,294.1L289.9,294.1z"/>
</g>
</svg>
