<?xml version="1.0" encoding="UTF-8"?><svg id="Layer_1" xmlns="http://www.w3.org/2000/svg" viewBox="0 0 120.08 162.87"><defs><style>.cls-1{fill:#fff;}</style></defs><path class="cls-1" d="m119.01,29.59s0-.08-.02-.12c-.4-3.2-.9-6.37-1.51-9.52,0-.04-.02-.08-.02-.13-.56-2.87-1.21-5.71-1.95-8.54l-.36-.16c-2.38-1.01-4.78-1.95-7.2-2.81-.04-.02-.08-.03-.12-.04-3.24-1.16-6.51-2.2-9.81-3.12-.04-.01-.08-.02-.12-.03-2.12-.59-4.24-1.13-6.38-1.61-.04-.01-.08-.02-.13-.02-3.65-.83-7.33-1.51-11.04-2.03-.04-.01-.08-.02-.11-.02-1.86-.27-3.73-.5-5.61-.69-.04,0-.08,0-.12-.01-3.87-.39-7.76-.63-11.69-.7-.04,0-.08,0-.12,0-.89-.02-1.78-.03-2.68-.03s-1.78,0-2.68.03c-.04,0-.08,0-.12,0-3.92.07-7.82.31-11.69.7-.04,0-.08,0-.12.01-1.88.19-3.75.42-5.61.69-.04,0-.08,0-.11.02-3.71.52-7.39,1.2-11.04,2.03-.04,0-.08.01-.13.02-2.14.48-4.27,1.02-6.38,1.61-.04,0-.08.02-.12.03-3.3.92-6.57,1.96-9.81,3.12-.04.01-.08.02-.12.04-2.42.87-4.82,1.81-7.2,2.82l-.36.16c-.74,2.83-1.39,5.68-1.95,8.54,0,.04-.02.08-.02.13-.61,3.15-1.11,6.32-1.51,9.52,0,.04-.01.08-.02.12-.71,5.78-1.07,11.63-1.07,17.54,0,.12,0,.24,0,.36,0,.04,0,.08,0,.11.02,5.88.39,11.71,1.11,17.47,0,.04,0,.08.02.12.39,3.06.88,6.11,1.46,9.13,0,.04.02.08.02.13.5,2.55,1.07,5.09,1.71,7.61.01.04.02.08.03.12.68,2.66,1.44,5.31,2.28,7.94,0,.04.02.07.03.11.87,2.72,1.82,5.43,2.87,8.11.01.04.02.08.04.11.49,1.28,1.01,2.54,1.54,3.81.31.73.63,1.47.95,2.19.01.03.02.06.04.09,1.4,3.18,2.93,6.29,4.56,9.34.02.04.03.07.06.1.7,1.31,1.42,2.61,2.16,3.9.02.03.03.06.05.09,2.16,3.73,4.48,7.35,6.97,10.87.02.03.05.07.08.1.37.52.74,1.04,1.12,1.56.02.03.04.05.06.08,2.96,4.05,6.15,7.96,9.55,11.7.02.02.04.05.06.07.69.75,1.38,1.49,2.08,2.23.04.04.08.09.12.13.82.86,1.65,1.71,2.49,2.55,2.03,2.03,4.1,3.98,6.23,5.87.02.02.04.04.07.06,3.92,3.47,8,6.71,12.24,9.7h.07c4.24-3,8.33-6.23,12.24-9.7.02-.02.04-.04.07-.06,2.13-1.89,4.2-3.84,6.23-5.87.84-.84,1.67-1.69,2.49-2.55.04-.04.08-.08.12-.13.7-.73,1.39-1.48,2.08-2.23.02-.02.04-.05.06-.07.02.02.05.04.08.05,3.38-3.73,6.57-7.63,9.54-11.71-.02-.01-.05-.03-.08-.04.02-.03.04-.05.06-.08.38-.52.75-1.04,1.12-1.56.03-.04.05-.07.08-.1,2.49-3.52,4.81-7.14,6.97-10.87.02-.03.03-.06.05-.09.74-1.29,1.47-2.58,2.16-3.9.02-.04.04-.07.06-.1,1.63-3.05,3.15-6.16,4.56-9.34.02-.03.03-.06.04-.09.33-.73.64-1.46.95-2.19.53-1.26,1.05-2.53,1.54-3.81.02-.04.03-.07.04-.11,1.05-2.68,2-5.38,2.87-8.11.01-.04.02-.07.03-.11.84-2.63,1.6-5.28,2.28-7.94.01-.04.02-.08.03-.12.64-2.52,1.21-5.06,1.71-7.61,0-.04.02-.08.02-.13.59-3.02,1.07-6.06,1.46-9.13,0-.04.01-.08.02-.12.73-5.76,1.1-11.58,1.11-17.47,0-.04,0-.08,0-.11,0-.12,0-.24,0-.36,0-5.91-.36-11.76-1.07-17.54Zm-47.99,104.02c-3.43,3.67-7.07,7.12-10.91,10.37-.02.02-.05.04-.08.06-.02-.02-.05-.04-.08-.06-3.84-3.24-7.48-6.7-10.91-10.37-.02-.02-.05-.05-.07-.07-1.76-1.89-3.46-3.82-5.1-5.81-.03-.03-.05-.06-.08-.09-1.5-1.82-2.96-3.69-4.36-5.6-.02-.02-.04-.05-.06-.08-1.57-2.14-3.08-4.33-4.51-6.57-.02-.03-.04-.06-.06-.1-1.25-1.95-2.45-3.94-3.59-5.97-.02-.03-.04-.06-.05-.09-1.34-2.38-2.61-4.81-3.8-7.28-.02-.04-.03-.07-.04-.1-1.04-2.16-2.02-4.36-2.93-6.59-.02-.04-.03-.07-.04-.1-1.03-2.51-1.98-5.06-2.85-7.64-.02-.04-.02-.07-.04-.1-.93-2.78-1.77-5.6-2.51-8.46-.01-.04-.02-.08-.03-.12h0c-.57-2.19-1.07-4.4-1.52-6.64,0-.03-.02-.07-.02-.1-1.04-5.21-1.76-10.53-2.14-15.96,0-.04,0-.07,0-.11-.21-2.93-.31-5.89-.31-8.88,0-2.57.08-5.12.23-7.65,0-.04,0-.08,0-.11.34-5.76,1.08-11.41,2.17-16.94,0-.04.01-.08.02-.11.04-.02.07-.03.1-.04,1.66-.6,3.33-1.15,5.03-1.68.03-.02.07-.02.1-.03,3.7-1.15,7.48-2.13,11.31-2.93.03,0,.07-.02.1-.02,1.2-.25,2.41-.48,3.63-.7.04,0,.07-.01.11-.02,4.14-.73,8.36-1.27,12.63-1.59.04,0,.07,0,.1,0,.97-.07,1.94-.13,2.92-.18.04,0,.07,0,.11,0,2.16-.11,4.34-.17,6.53-.17s4.37.06,6.53.17c.04,0,.07,0,.11,0,.98.05,1.95.11,2.92.18.04,0,.07,0,.1,0,.02.03.03.06.04.1,1.73,4.96,3.06,10.11,3.96,15.4,0,.03.01.07.02.1-.03,0-.07-.01-.1-.01-3.86-.47-7.76-.73-11.69-.8h-.1c-.59-.01-1.19-.02-1.78-.02s-1.19,0-1.78.02h-.1c-3.93.06-7.83.33-11.69.8-.03,0-.07,0-.1.01-1.09.13-2.17.28-3.25.44-.03,0-.06,0-.1.02-4.11.63-8.18,1.49-12.18,2.57-.51,4.35-.77,8.75-.77,13.19,0,.87,0,1.75.03,2.62v.1c.12,5.17.59,10.29,1.42,15.33,0,.04,0,.07.02.1.81,4.97,1.96,9.87,3.45,14.68,0,.03.02.07.03.1.13.43.27.85.41,1.28.01.04.02.08.04.13.99,3.06,2.12,6.08,3.37,9.06.5,1.17,1.01,2.33,1.54,3.48.01.03.03.06.04.1.58,1.26,1.19,2.49,1.81,3.72.02.03.03.06.05.1,1.65,3.22,3.44,6.35,5.4,9.38.02.03.04.06.06.09.86,1.36,1.76,2.69,2.7,4,.02.03.04.06.06.08,2.16,3.06,4.49,6.01,6.97,8.86.03.03.06.06.08.09.82.93,1.64,1.85,2.49,2.75.02.03.05.05.07.08.86.92,1.73,1.82,2.62,2.71,2.65,2.65,5.41,5.15,8.28,7.5.03.02.05.05.08.06-.02.02-.04.05-.07.07Zm33.81-77.6s0,.07,0,.11c-.38,5.42-1.1,10.75-2.14,15.96,0,.04-.01.07-.02.1-.45,2.24-.95,4.45-1.52,6.64-.01.04-.02.08-.04.13-.73,2.86-1.57,5.68-2.51,8.46-.01.04-.02.07-.04.1-.87,2.59-1.82,5.13-2.85,7.64-.02.04-.03.07-.04.1-.92,2.23-1.89,4.43-2.93,6.59-.01.03-.03.06-.04.1-1.19,2.47-2.46,4.9-3.8,7.29-.02.03-.03.06-.05.09-1.14,2.03-2.34,4.02-3.59,5.97-.02.03-.04.06-.06.1-1.43,2.24-2.94,4.43-4.51,6.57-.02.03-.04.06-.06.08-.02-.02-.05-.04-.07-.06-3.9-3.18-7.55-6.66-10.91-10.41-.02-.02-.05-.05-.07-.08-1.71-1.91-3.35-3.89-4.9-5.94-.03-.04-.06-.08-.08-.11-1.6-2.11-3.12-4.29-4.55-6.54-.02-.03-.04-.06-.06-.09-1.72-2.7-3.3-5.49-4.74-8.37-.02-.03-.04-.06-.05-.1-1.23-2.45-2.35-4.95-3.37-7.51-.02-.04-.04-.08-.05-.13-.87-2.19-1.66-4.42-2.37-6.68-.01-.03-.02-.06-.03-.09.03,0,.06-.01.1-.02,1.8-.29,3.62-.5,5.47-.64.04,0,.07,0,.11,0,1.65-.13,3.31-.19,4.99-.19s3.34.06,4.99.19c.04,0,.07,0,.11,0,1.84.14,3.67.36,5.47.64,1.49-4.77,2.6-9.63,3.33-14.59-4.19-.72-8.44-1.12-12.76-1.17h-.1c-.35,0-.69,0-1.04,0s-.69,0-1.04,0h-.1c-4.31.06-8.57.45-12.76,1.17-.03,0-.06,0-.1.02,0-.03-.01-.06-.02-.1-.67-4.61-1.03-9.32-1.03-14.12,0-.29,0-.57,0-.86-.03,0-.07,0-.1.02v-.1s.06-.01.1-.02c0,0,0,0,.01,0,.03,0,.06-.02.1-.02,4.82-.75,9.77-1.14,14.8-1.15h.25c5.03,0,9.98.4,14.8,1.15.04,0,.07,0,.1.02,0,0,0,0,.01,0,.04,0,.07,0,.1.02,5.07.8,10.02,1.99,14.8,3.55.02-.87.03-1.74.03-2.62,0-4.44-.26-8.84-.77-13.19,0-.04,0-.07-.01-.1-.65-5.46-1.69-10.83-3.13-16.11,0-.04-.02-.07-.03-.1.04,0,.07.02.1.02,3.84.8,7.61,1.78,11.31,2.93.03,0,.07.02.1.03,1.69.52,3.37,1.08,5.03,1.68.04,0,.07.02.1.04,0,.04.02.08.02.11,1.09,5.53,1.83,11.18,2.17,16.94,0,.04,0,.08,0,.11.15,2.53.23,5.08.23,7.65,0,2.99-.1,5.95-.31,8.88Z"/></svg>