<?xml version="1.0" encoding="UTF-8"?><svg id="Layer_1" xmlns="http://www.w3.org/2000/svg" viewBox="0 0 127.9 151.73"><defs><style>.cls-1{fill:#fff;}</style></defs><path class="cls-1" d="m.72,34.87l-.72.42v23.08l.74.42,19.37,11.18v23.23l.74.42,19.37,11.18v22.16c0,.66.35,1.27.93,1.59h0s19.79,23.16,19.79,23.16l.2-34.7V0L.72,34.87Zm19.99,12.61h0s.32-.18.32-.18h0s.18-.1.18-.1h.02s0-.01,0-.01l18.99-10.96v22.29l-19.19,11.08-.32-.19c-8.44-4.87-8.44-17.05,0-21.92h0Zm19.51,35.18v21.23l-10.36-5.98c-3.56-2.06-3.56-7.2,0-9.26l10.36-5.98Z"/><path class="cls-1" d="m127.18,34.87l.72.42v23.08l-.74.42-19.37,11.18v23.23l-.74.42-19.37,11.18v22.16c0,.66-.35,1.27-.93,1.59h0s-19.79,23.16-19.79,23.16l-.2-34.7V0l60.41,34.87Zm-19.99,12.61h0s-.32-.18-.32-.18h0s-.18-.1-.18-.1h-.02s0-.01,0-.01l-18.99-10.96v22.29l19.19,11.08.32-.19c8.44-4.87,8.44-17.05,0-21.92h0Zm-19.51,35.18v21.23l10.36-5.98c3.56-2.06,3.56-7.2,0-9.26l-10.36-5.98Z"/></svg>