<?xml version="1.0" encoding="UTF-8"?><svg id="Layer_1" xmlns="http://www.w3.org/2000/svg" viewBox="0 0 109.19 155.05"><defs><style>.cls-1{fill:#fff;}</style></defs><path class="cls-1" d="m109.19,38.65l-16.19-9.35v61.07l-9.25-5.34-16.19-9.35-22.77-13.14c-1.94-1.12-3.14-3.2-3.14-5.44V13.88c0-2.56,2.07-4.63,4.63-4.63h16.66c2.26,0,4.15,1.63,4.55,3.78l.08.05v33.84l16.19,9.35V13.88c0-.77-.06-1.53-.19-2.27-.13-.81-.33-1.6-.61-2.35-1.9-5.39-7.04-9.25-13.08-9.25-.79,0-1.56.06-2.31.2v-.2h-25.91v.2c-.75-.13-1.53-.2-2.31-.2-6.04,0-11.18,3.86-13.08,9.25-.52,1.45-.8,3-.8,4.63v37.48l-2.31-1.33-6.94-4.01L0,36.67h0v79.74l16.19,9.35v-61.07l9.25,5.34,16.19,9.35,22.82,13.17c1.91,1.1,3.09,3.15,3.09,5.36v43.26c0,2.56-2.07,4.63-4.63,4.63h-16.66c-2.26,0-4.15-1.63-4.55-3.78l-.08-.05v-42.63l-16.19-9.35v51.18c0,.77.06,1.53.19,2.27.13.81.33,1.6.61,2.35,1.9,5.39,7.04,9.25,13.08,9.25.79,0,1.56-.06,2.31-.2v.2h25.91v-.2c.75.13,1.53.2,2.31.2,6.04,0,11.18-3.86,13.08-9.25.52-1.45.8-3,.8-4.63v-37.48l2.31,1.33,6.94,4.01,16.19,9.35h0V38.65Z"/></svg>