<?xml version="1.0" encoding="UTF-8"?><svg id="Layer_1" xmlns="http://www.w3.org/2000/svg" viewBox="0 0 305.44 323.8"><defs><style>.cls-1{fill:#fff;}</style></defs><path class="cls-1" d="m176.38,74.43c-7.92,0-15.96,2.85-23.72,5.6-7.73,2.75-15.72,5.58-23.57,5.58h-.23v11.66h.23c7.92,0,15.96-2.85,23.72-5.6,7.73-2.75,15.72-5.58,23.57-5.58h.23v-11.66h-.23Z"/><path class="cls-1" d="m297.46,83.19c-5.36-11.83-12.92-21.65-22.75-29.45-9.82-7.8-21.59-13.61-35.3-17.41-13.73-3.81-28.99-5.73-45.83-5.73h-14.99v-2.07l15.63-26.43V0h-84.41c-3.21.04-6.33.12-9.43.31-12.35.68-23.78,2.48-34.31,5.42-13.71,3.81-25.5,9.62-35.3,17.41-9.82,7.8-17.39,17.62-22.75,29.45C2.67,64.42,0,78.36,0,94.4s2.63,30.01,7.9,41.88c5.25,11.87,12.78,21.73,22.54,29.59,9.78,7.86,21.59,13.69,35.45,17.56,13.86,3.85,29.32,5.79,46.41,5.79h14.6v1.8l-15.78,26.7v2.11h84.75c16.03-.19,30.61-2.11,43.72-5.77,13.86-3.85,25.66-9.7,35.45-17.56,9.78-7.84,17.29-17.7,22.54-29.59,5.25-11.87,7.88-25.83,7.88-41.88s-2.67-29.99-8.02-41.81l.04-.02Zm-50.23,81.25c-1.76,10.69-4.69,19.56-8.81,26.64-4.12,7.05-9.62,12.33-16.5,15.78-6.89,3.45-15.49,5.19-25.83,5.19h-4.78l-3.39-5.73-9.06-15.34v-39.35c-17.39.06-34.8,12.3-52.2,12.45v17.37h-17.23c-10.34,0-18.96-1.74-25.83-5.19-6.89-3.47-12.39-8.73-16.5-15.78-4.12-7.05-7.05-15.92-8.81-26.64-1.76-10.69-2.63-23.26-2.63-37.74,0-15.24.95-28.41,2.83-39.52,1.88-11.08,4.94-20.25,9.2-27.48,4.26-7.24,9.8-12.59,16.63-16.11,3.23-1.65,6.8-2.92,10.71-3.78,4.36-.97,9.18-1.47,14.39-1.47h4.9l12.33,20.8v41.61c17.39-.17,34.8-12.39,52.2-12.45v-19.38h17.23c9.91,0,18.28,1.76,25.11,5.25,6.84,3.52,12.39,8.87,16.63,16.11,4.26,7.24,7.32,16.4,9.2,27.48,1.88,11.08,2.83,24.26,2.83,39.52s-.87,27.05-2.63,37.74v.02Z"/><path class="cls-1" d="m176.38,100.4c-7.92,0-15.96,2.85-23.72,5.6-7.73,2.75-15.72,5.58-23.57,5.58h-.23v11.66h.23c7.92,0,15.96-2.85,23.72-5.6,7.73-2.75,15.72-5.58,23.57-5.58h.23v-11.66h-.23Z"/><path class="cls-1" d="m176.38,125.44c-7.92,0-15.96,2.85-23.72,5.6-7.73,2.75-15.72,5.58-23.57,5.58h-.23v11.66h.23c7.92,0,15.96-2.85,23.72-5.6,7.73-2.75,15.72-5.58,23.57-5.58h.23v-11.66s-.23,0-.23,0Z"/><path class="cls-1" d="m36.62,251.53c-.74-.74-1.7-1.36-2.79-1.86-.56-.25-1.18-.45-1.82-.62.45-.17.87-.37,1.26-.58.93-.52,1.74-1.12,2.36-1.82.64-.7,1.14-1.51,1.47-2.4s.5-1.82.5-2.81c0-1.08-.23-2.11-.68-3.08s-1.16-1.82-2.07-2.56c-.91-.72-2.11-1.28-3.52-1.7-1.41-.41-3.08-.62-5.03-.62h-14.37v1.16l3.6,2.05v26.26l-3.6,2.05v1.16h13.13c2.13,0,4.05-.17,5.73-.5,1.7-.33,3.16-.87,4.34-1.57,1.2-.72,2.15-1.68,2.79-2.81.64-1.14.97-2.52.97-4.09,0-1.08-.19-2.13-.58-3.08-.39-.97-.95-1.84-1.72-2.58l.02.02Zm-5.36-7.16c-.25.79-.6,1.49-1.1,2.07s-1.12,1.03-1.9,1.36-1.72.52-2.81.52h-4.3v-12.95h3.91c1.14,0,2.15.14,2.98.45.81.29,1.49.72,2.03,1.26s.93,1.2,1.18,1.99c.27.79.39,1.7.39,2.69,0,.93-.12,1.82-.37,2.63v-.02Zm-10.11,5.83h4.53c1.26,0,2.36.17,3.27.5.89.31,1.63.79,2.19,1.36.58.6.99,1.32,1.26,2.15.27.87.41,1.84.41,2.9s-.14,2.11-.45,3c-.29.87-.74,1.61-1.34,2.23-.6.6-1.36,1.08-2.27,1.41-.93.33-2.07.5-3.37.5h-4.24v-14.06l.02.02Z"/><path class="cls-1" d="m61.43,237.55c-.12-.33-.43-.54-.79-.54h-5.09v.95l1.61,2.3-7.28,20.25-3.25,1.68v1.1h8.73v-1.12l-3.6-1.59,1.99-5.58h9.08l2.01,5.62-2.73,1.57v1.08h10.84v-1.08l-3.06-1.68-8.48-22.98.02.02Zm-3.12,4.65l3.93,11.06h-7.86l3.93-11.06Z"/><path class="cls-1" d="m101.74,260.54l-5.52-9.53c-.08-.14-.23-.27-.39-.35.21-.08.43-.14.64-.25.87-.35,1.65-.85,2.32-1.43.68-.6,1.22-1.32,1.61-2.19.39-.85.6-1.86.6-3.02,0-1.01-.21-1.96-.6-2.79-.39-.85-.99-1.57-1.78-2.15-.77-.58-1.74-1.03-2.87-1.36-1.12-.31-2.42-.48-3.87-.48h-11.66v1.08l2.87,1.63v20.85l-2.87,1.61v1.08h10.38v-1.08l-2.87-1.63v-21.86h3.02c.97,0,1.82.12,2.48.37s1.2.6,1.61,1.03c.41.43.72.99.91,1.61.21.64.29,1.39.29,2.19,0,.93-.1,1.78-.33,2.52-.21.7-.56,1.32-.99,1.82-.45.5-1.03.87-1.74,1.14-.72.27-1.59.41-2.63.43h-1.41c-.23,0-.45.12-.62.29-.17.19-.23.41-.21.64.04.41.41.72.83.72h2.07c.19,0,.37,0,.56-.02l6.18,11.83h6.62l-.06-1.05-2.58-1.68.02.02Z"/><path class="cls-1" d="m132.2,251.42c-.6-.6-1.36-1.1-2.25-1.51-.37-.17-.77-.31-1.2-.43.27-.1.52-.23.77-.37.74-.41,1.41-.91,1.9-1.49.52-.58.91-1.22,1.2-1.94s.41-1.47.41-2.27c0-.87-.19-1.72-.54-2.5-.37-.79-.93-1.49-1.7-2.07-.74-.58-1.7-1.03-2.83-1.36-1.12-.33-2.48-.5-4.03-.5h-11.56v1.08l2.87,1.63v20.82l-2.87,1.63v1.08h10.57c1.7,0,3.25-.12,4.59-.39,1.36-.27,2.54-.68,3.49-1.26.97-.58,1.74-1.34,2.25-2.27s.79-2.05.79-3.31c0-.87-.17-1.72-.45-2.5-.31-.79-.79-1.49-1.39-2.09l-.02.04Zm-4.45-9.84c.21.62.31,1.34.31,2.11s-.1,1.43-.29,2.07c-.19.62-.48,1.16-.87,1.61-.37.45-.87.81-1.47,1.08s-1.34.39-2.21.39h-3.33v-10.15h3.02c.91,0,1.7.12,2.34.35s1.16.56,1.57.99c.41.41.72.93.93,1.55Zm-7.86,8.95h3.52c.99,0,1.86.12,2.56.39.68.25,1.26.62,1.72,1.08.45.45.79,1.03.99,1.68.23.68.33,1.45.33,2.27s-.12,1.68-.35,2.36-.58,1.26-1.05,1.74c-.45.48-1.08.85-1.78,1.1-.74.27-1.63.39-2.65.39h-3.29v-11.02.02Z"/><path class="cls-1" d="m158.23,261.56h-8.69v-10.92h4.59l2.11,3.33h1.03v-8.27h-1.03l-2.11,3.25h-4.59v-10.26h7.44l3.02,5.69h.91v-6.56c0-.45-.37-.83-.83-.83h-18.07v1.08l2.87,1.63v20.85l-2.87,1.61v1.08h20.02l1.05-7.32-.93-.1-3.97,5.73.04.02Z"/><path class="cls-1" d="m184.62,237.55c-.12-.33-.43-.54-.79-.54h-5.09v.95l1.61,2.3-7.28,20.25-3.25,1.68v1.1h8.75v-1.12l-3.6-1.59,1.99-5.58h9.08l2.01,5.62-2.73,1.57v1.08h10.84v-1.08l-3.06-1.68-8.48-22.98v.02Zm-3.12,4.65l3.93,11.06h-7.86l3.93-11.06Z"/><path class="cls-1" d="m224.95,260.54l-5.54-9.53c-.08-.14-.23-.27-.39-.35.21-.08.43-.14.64-.25.87-.35,1.65-.85,2.32-1.43.68-.6,1.22-1.32,1.61-2.19.39-.85.6-1.86.6-3.02,0-1.01-.21-1.96-.6-2.79-.39-.85-.99-1.57-1.78-2.15-.77-.58-1.74-1.03-2.87-1.36-1.12-.31-2.42-.48-3.87-.48h-11.66v1.08l2.87,1.63v20.85l-2.87,1.61v1.08h10.38v-1.08l-2.87-1.63v-21.86h3.02c.97,0,1.82.12,2.48.37s1.2.6,1.61,1.03.72.99.91,1.61c.21.64.29,1.39.29,2.19,0,.93-.1,1.78-.33,2.52-.21.72-.56,1.32-.99,1.82-.45.5-1.03.87-1.74,1.14-.72.27-1.59.41-2.63.43h-1.41c-.23,0-.45.12-.62.29-.17.19-.23.41-.21.64.04.41.41.72.83.72h2.07c.19,0,.37,0,.56-.02l6.18,11.83h6.62l-.06-1.05-2.58-1.68.04.02Z"/><polygon class="cls-1" points="235.55 238.09 238.43 239.72 238.43 260.56 235.55 262.18 235.55 263.25 245.96 263.25 245.96 262.18 243.08 260.54 243.08 239.72 245.96 238.09 245.96 236.99 235.55 236.99 235.55 238.09"/><path class="cls-1" d="m283.7,262.92l-10.65-28.89c-.12-.33-.43-.54-.79-.54h-6.33v1.03l2.05,2.9-9.16,25.5-4.03,2.07v1.18h10.71v-1.2l-4.53-2.01,2.54-7.18h11.56l2.58,7.24-3.45,1.99v1.16h13.34v-1.18l-3.83-2.09-.02.02Zm-14.43-23.39l5.09,14.33h-10.17l5.09-14.33h0Z"/><path class="cls-1" d="m119.09,286.7c-2.19-1.74-4.84-3.04-7.88-3.89-3.02-.85-6.43-1.26-10.13-1.26h-18.45v1.05l3.41,5.77v28.54l-3.45,5.83v1.05h18.38c3.76,0,7.22-.43,10.26-1.28,3.08-.85,5.73-2.17,7.9-3.91,2.19-1.76,3.89-3.99,5.07-6.64,1.18-2.65,1.76-5.79,1.76-9.33s-.6-6.68-1.8-9.33c-1.2-2.65-2.92-4.86-5.11-6.6l.04-.02Zm-6.18,16.3c0,3.12-.19,5.87-.56,8.17-.37,2.27-.99,4.18-1.86,5.65-.85,1.45-2.01,2.54-3.41,3.27-1.43.72-3.25,1.08-5.44,1.08h-3.29v-36.98h3.29c2.07,0,3.85.37,5.27,1.1,1.41.72,2.56,1.84,3.43,3.33.89,1.53,1.55,3.49,1.94,5.83.41,2.38.62,5.25.62,8.54v.02Z"/><polygon class="cls-1" points="131.25 282.61 134.71 288.42 134.71 316.94 131.25 322.75 131.25 323.8 150.42 323.8 150.42 322.75 146.97 316.94 146.97 288.42 150.42 282.61 150.42 281.55 131.25 281.55 131.25 282.61"/><path class="cls-1" d="m193.36,286.7c-2.19-1.74-4.84-3.04-7.88-3.89-3.02-.85-6.43-1.26-10.13-1.26h-18.45v1.05l3.41,5.77v28.54l-3.45,5.83v1.05h18.38c3.76,0,7.22-.43,10.26-1.28,3.08-.85,5.73-2.17,7.9-3.91,2.19-1.76,3.89-3.99,5.07-6.64,1.18-2.65,1.76-5.79,1.76-9.33s-.6-6.68-1.8-9.33c-1.2-2.65-2.92-4.86-5.11-6.6l.04-.02Zm-12.04,33.38c-1.43.72-3.25,1.08-5.44,1.08h-3.29v-36.98h3.29c2.07,0,3.85.37,5.27,1.1,1.41.72,2.56,1.84,3.43,3.33.89,1.53,1.55,3.49,1.94,5.83.41,2.38.62,5.25.62,8.54s-.19,5.85-.56,8.17c-.37,2.27-.99,4.18-1.86,5.65-.85,1.45-2.01,2.54-3.41,3.27v.02Z"/><polygon class="cls-1" points="224.69 282.61 224.69 281.55 205.52 281.55 205.52 282.61 208.97 288.42 208.97 316.94 205.52 322.75 205.52 323.8 224.69 323.8 224.69 322.75 221.25 316.94 221.25 288.42 224.69 282.61"/></svg>