<?xml version="1.0" encoding="UTF-8"?><svg id="Layer_1" xmlns="http://www.w3.org/2000/svg" viewBox="0 0 146.62 133.18"><defs><style>.cls-1{fill:#fff;}</style></defs><path class="cls-1" d="m146.62,106.33v26.64h-11.19v-26.64c0-10.57-3.93-20.68-11.04-28.42-.43-.46-.85-.91-1.29-1.34-.04-.04-.09-.09-.13-.13-1.44.65-2.93,1.22-4.44,1.69,7.8,6.97,12.64,17.1,12.64,28.21v26.64h-11.19v-26.64c0-13.58-10.16-24.78-23.29-26.43-1.1-.15-2.22-.21-3.35-.21v-10.98h13.33c6.55,0,12.59-2.19,17.42-5.9,2.47,1.75,4.79,3.7,6.93,5.84.55.55,1.07,1.1,1.6,1.67,8.7,9.48,14.01,22.12,14.01,36Z"/><path class="cls-1" d="m15.45,93.22v-13.31h11.19v13.31c0,7.36,5.96,13.33,13.32,13.33,3.67,0,7-1.49,9.41-3.9,2.42-2.41,3.9-5.74,3.9-9.42V0h11.19v93.22c0,6.57-2.56,12.73-7.16,17.31-4.62,4.64-10.79,7.21-17.34,7.21-13.52,0-24.51-11-24.51-24.51Z"/><path class="cls-1" d="m79.92,0v93.22c0,22.07-17.89,39.96-39.95,39.96-11.03,0-21.03-4.48-28.26-11.7-7.23-7.23-11.7-17.23-11.7-28.26v-13.31h11.19v13.31c0,7.69,2.99,14.91,8.42,20.35,5.44,5.43,12.66,8.42,20.35,8.42,15.86,0,28.76-12.91,28.76-28.78V0h11.19Z"/><path class="cls-1" d="m106.67,0h-20.04v11.19h20.04c15.86,0,28.76,12.9,28.76,28.76,0,9.32-4.45,17.61-11.34,22.87-4.83,3.7-10.87,5.9-17.42,5.9h-26.75v11.19h26.75c9.9,0,18.96-3.6,25.95-9.58,8.58-7.33,14.01-18.21,14.01-30.38,0-22.07-17.88-39.95-39.95-39.95Zm0,64.45c5.01,0,9.69-1.52,13.57-4.12,6.59-4.4,10.93-11.89,10.93-20.38,0-13.52-10.99-24.5-24.5-24.5h-20.04v11.19h20.04c3.68,0,7,1.49,9.42,3.89,2.41,2.41,3.89,5.74,3.89,9.42,0,7.35-5.95,13.31-13.31,13.31h-26.75v11.19h26.75Z"/></svg>