<?xml version="1.0" encoding="UTF-8"?><svg id="Layer_1" xmlns="http://www.w3.org/2000/svg" viewBox="0 0 322.83 92.89"><defs><style>.cls-1{fill:#fff;}</style></defs><path class="cls-1" d="m100.31,0c-28.89,0-55.58,15.41-70.03,40.43h0s-6.95,12.03-6.95,12.03L0,92.89h46.69l23.34-40.43h0c4.3-7.45,12.24-12.03,20.84-12.03h15.4c-8.6,0-16.54,4.59-20.84,12.03h0s-23.34,40.43-23.34,40.43h46.69l23.34-40.43,2.69-4.65c2.63-4.57,7.51-7.38,12.78-7.38h19.81c-8.6,0-16.54,4.59-20.84,12.03h0s-23.34,40.43-23.34,40.43h46.69l12.28-21.27,11.06-19.16,6.95-12.03,5.63-9.75L223.53,0h-123.21Z"/><path class="cls-1" d="m295.84,0h-61.13l-23.34,40.43-6.95,12.03-23.34,40.43h46.69l23.34-40.43,2.86-4.95c2.53-4.38,7.2-7.08,12.26-7.08h20.16c-8.6,0-16.54,4.59-20.84,12.03h0s-23.34,40.43-23.34,40.43h46.69l12.28-21.27,11.06-19.16,6.95-12.03h0c10.37-17.97-2.59-40.43-23.34-40.43Z"/></svg>