<?xml version="1.0" encoding="UTF-8"?><svg id="Layer_1" xmlns="http://www.w3.org/2000/svg" viewBox="0 0 147.7 156.58"><defs><style>.cls-1{fill:#fff;}</style></defs><path class="cls-1" d="m85.28,35.99c-3.83,0-7.72,1.38-11.47,2.71-3.74,1.33-7.6,2.7-11.4,2.7h-.11v5.64h.11c3.83,0,7.72-1.38,11.47-2.71,3.74-1.33,7.6-2.7,11.4-2.7h.11v-5.64h-.11Z"/><path class="cls-1" d="m143.83,40.23c-2.59-5.72-6.25-10.47-11-14.24-4.75-3.77-10.44-6.58-17.07-8.42-6.64-1.84-14.02-2.77-22.16-2.77h-7.25v-1l7.56-12.78V0h-39.8c-.34,0-.68,0-1.02,0-1.55.02-3.06.06-4.56.15-5.97.33-11.5,1.2-16.59,2.62-6.63,1.84-12.33,4.65-17.07,8.42-4.75,3.77-8.41,8.52-11,14.24-2.59,5.72-3.88,12.46-3.88,20.22s1.27,14.51,3.82,20.25c2.54,5.74,6.18,10.51,10.9,14.31,4.73,3.8,10.44,6.62,17.14,8.49,6.7,1.86,14.18,2.8,22.44,2.8h7.06v.87l-7.63,12.91v1.02h39.68c.44,0,.87,0,1.3,0,7.75-.09,14.8-1.02,21.14-2.79,6.7-1.86,12.41-4.69,17.14-8.49,4.73-3.79,8.36-8.56,10.9-14.31,2.54-5.74,3.81-12.49,3.81-20.25s-1.29-14.5-3.88-20.22Zm-24.29,39.29c-.85,5.17-2.27,9.46-4.26,12.88-1.99,3.41-4.65,5.96-7.98,7.63-3.33,1.67-7.49,2.51-12.49,2.51h-2.31l-1.64-2.77-4.38-7.42v-19.03c-8.41.03-16.83,5.95-25.24,6.02v8.4h-8.33c-5,0-9.17-.84-12.49-2.51-3.33-1.68-5.99-4.22-7.98-7.63-1.99-3.41-3.41-7.7-4.26-12.88-.85-5.17-1.27-11.25-1.27-18.25,0-7.37.46-13.74,1.37-19.11.91-5.36,2.39-9.79,4.45-13.29,2.06-3.5,4.74-6.09,8.04-7.79,1.56-.8,3.29-1.41,5.18-1.83,2.11-.47,4.44-.71,6.96-.71h2.37l5.96,10.06v20.12c8.41-.08,16.83-5.99,25.24-6.02v-9.37h8.33c4.79,0,8.84.85,12.14,2.54,3.31,1.7,5.99,4.29,8.04,7.79,2.06,3.5,3.54,7.93,4.45,13.29.91,5.36,1.37,11.73,1.37,19.11s-.42,13.08-1.27,18.25Z"/><path class="cls-1" d="m85.28,48.55c-3.83,0-7.72,1.38-11.47,2.71-3.74,1.33-7.6,2.7-11.4,2.7h-.11v5.64h.11c3.83,0,7.72-1.38,11.47-2.71,3.74-1.33,7.6-2.7,11.4-2.7h.11v-5.64h-.11Z"/><path class="cls-1" d="m85.28,60.66c-3.83,0-7.72,1.38-11.47,2.71-3.74,1.33-7.6,2.7-11.4,2.7h-.11v5.64h.11c3.83,0,7.72-1.38,11.47-2.71,3.74-1.33,7.6-2.7,11.4-2.7h.11v-5.64h-.11Z"/><path class="cls-1" d="m19.63,121.63c-.36-.36-.82-.66-1.35-.9-.27-.12-.57-.22-.88-.3.22-.08.42-.18.61-.28.45-.25.84-.54,1.14-.88.31-.34.55-.73.71-1.16.16-.43.24-.88.24-1.36,0-.52-.11-1.02-.33-1.49-.22-.47-.56-.88-1-1.24-.44-.35-1.02-.62-1.7-.82-.68-.2-1.49-.3-2.43-.3h-6.95v.56l1.74.99v12.7l-1.74.99v.56h6.35c1.03,0,1.96-.08,2.77-.24.82-.16,1.53-.42,2.1-.76.58-.35,1.04-.81,1.35-1.36.31-.55.47-1.22.47-1.98,0-.52-.09-1.03-.28-1.49-.19-.47-.46-.89-.83-1.25Zm-2.59-3.46c-.12.38-.29.72-.53,1-.24.28-.54.5-.92.66-.38.16-.83.25-1.36.25h-2.08v-6.26h1.89c.55,0,1.04.07,1.44.22.39.14.72.35.98.61.26.26.45.58.57.96.13.38.19.82.19,1.3,0,.45-.06.88-.18,1.27Zm-4.89,2.82h2.19c.61,0,1.14.08,1.58.24.43.15.79.38,1.06.66.28.29.48.64.61,1.04.13.42.2.89.2,1.4s-.07,1.02-.22,1.45c-.14.42-.36.78-.65,1.08-.29.29-.66.52-1.1.68-.45.16-1,.24-1.63.24h-2.05v-6.8Z"/><path class="cls-1" d="m31.63,114.87c-.06-.16-.21-.26-.38-.26h-2.46v.46l.78,1.11-3.52,9.79-1.57.81v.53h4.22v-.54l-1.74-.77.96-2.7h4.39l.97,2.72-1.32.76v.52h5.24v-.52l-1.48-.81-4.1-11.11Zm-1.51,2.25l1.9,5.35h-3.8l1.9-5.35Z"/><path class="cls-1" d="m51.12,125.99l-2.67-4.61c-.04-.07-.11-.13-.19-.17.1-.04.21-.07.31-.12.42-.17.8-.41,1.12-.69.33-.29.59-.64.78-1.06.19-.41.29-.9.29-1.46,0-.49-.1-.95-.29-1.35-.19-.41-.48-.76-.86-1.04-.37-.28-.84-.5-1.39-.66-.54-.15-1.17-.23-1.87-.23h-5.64v.52l1.39.79v10.08l-1.39.78v.52h5.02v-.52l-1.39-.79v-10.57h1.46c.47,0,.88.06,1.2.18.32.12.58.29.78.5.2.21.35.48.44.78.1.31.14.67.14,1.06,0,.45-.05.86-.16,1.22-.1.34-.27.64-.48.88-.22.24-.5.42-.84.55-.35.13-.77.2-1.27.21h-.68c-.11,0-.22.06-.3.14-.08.09-.11.2-.1.31.02.2.2.35.4.35h.59c.13,0,.27,0,.41,0,.09,0,.18,0,.27-.01l2.99,5.72h3.2l-.03-.51-1.25-.81Z"/><path class="cls-1" d="m65.85,121.58c-.29-.29-.66-.53-1.09-.73-.18-.08-.37-.15-.58-.21.13-.05.25-.11.37-.18.36-.2.68-.44.92-.72.25-.28.44-.59.58-.94s.2-.71.2-1.1c0-.42-.09-.83-.26-1.21-.18-.38-.45-.72-.82-1-.36-.28-.82-.5-1.37-.66-.54-.16-1.2-.24-1.95-.24h-5.59v.52l1.39.79v10.07l-1.39.79v.52h5.11c.82,0,1.57-.06,2.22-.19.66-.13,1.23-.33,1.69-.61.47-.28.84-.65,1.09-1.1.25-.45.38-.99.38-1.6,0-.42-.08-.83-.22-1.21-.15-.38-.38-.72-.67-1.01Zm-2.15-4.76c.1.3.15.65.15,1.02,0,.36-.05.69-.14,1-.09.3-.23.56-.42.78-.18.22-.42.39-.71.52-.29.13-.65.19-1.07.19h-1.61v-4.91h1.46c.44,0,.82.06,1.13.17.31.11.56.27.76.48.2.2.35.45.45.75Zm-3.8,4.33h1.7c.48,0,.9.06,1.24.19.33.12.61.3.83.52.22.22.38.5.48.81.11.33.16.7.16,1.1s-.06.81-.17,1.14c-.11.33-.28.61-.51.84-.22.23-.52.41-.86.53-.36.13-.79.19-1.28.19h-1.59v-5.33Z"/><path class="cls-1" d="m78.44,126.48h-4.2v-5.28h2.22l1.02,1.61h.5v-4h-.5l-1.02,1.57h-2.22v-4.96h3.6l1.46,2.75h.44v-3.17c0-.22-.18-.4-.4-.4h-8.74v.52l1.39.79v10.08l-1.39.78v.52h9.68l.51-3.54-.45-.05-1.92,2.77Z"/><path class="cls-1" d="m91.2,114.87c-.06-.16-.21-.26-.38-.26h-2.46v.46l.78,1.11-3.52,9.79-1.57.81v.53h4.23v-.54l-1.74-.77.96-2.7h4.39l.97,2.72-1.32.76v.52h5.24v-.52l-1.48-.81-4.1-11.11Zm-1.51,2.25l1.9,5.35h-3.8l1.9-5.35Z"/><path class="cls-1" d="m110.7,125.99l-2.68-4.61c-.04-.07-.11-.13-.19-.17.1-.04.21-.07.31-.12.42-.17.8-.41,1.12-.69.33-.29.59-.64.78-1.06.19-.41.29-.9.29-1.46,0-.49-.1-.95-.29-1.35-.19-.41-.48-.76-.86-1.04-.37-.28-.84-.5-1.39-.66-.54-.15-1.17-.23-1.87-.23h-5.64v.52l1.39.79v10.08l-1.39.78v.52h5.02v-.52l-1.39-.79v-10.57h1.46c.47,0,.88.06,1.2.18.32.12.58.29.78.5.2.21.35.48.44.78.1.31.14.67.14,1.06,0,.45-.05.86-.16,1.22-.1.35-.27.64-.48.88-.22.24-.5.42-.84.55-.35.13-.77.2-1.27.21h-.68c-.11,0-.22.06-.3.14-.08.09-.11.2-.1.31.02.2.2.35.4.35h.59c.13,0,.27,0,.41,0,.09,0,.18,0,.27-.01l2.99,5.72h3.2l-.03-.51-1.25-.81Z"/><polygon class="cls-1" points="115.83 115.13 117.22 115.92 117.22 126 115.83 126.78 115.83 127.3 120.86 127.3 120.86 126.78 119.47 125.99 119.47 115.92 120.86 115.13 120.86 114.6 115.83 114.6 115.83 115.13"/><path class="cls-1" d="m139.11,127.14l-5.15-13.97c-.06-.16-.21-.26-.38-.26h-3.06v.5l.99,1.4-4.43,12.33-1.95,1v.57h5.18v-.58l-2.19-.97,1.23-3.47h5.59l1.25,3.5-1.67.96v.56h6.45v-.57l-1.85-1.01Zm-6.98-11.31l2.46,6.93h-4.92l2.46-6.93Z"/><path class="cls-1" d="m57.58,138.64c-1.06-.84-2.34-1.47-3.81-1.88-1.46-.41-3.11-.61-4.9-.61h-8.92v.51l1.65,2.79v13.8l-1.67,2.82v.51h8.89c1.82,0,3.49-.21,4.96-.62,1.49-.41,2.77-1.05,3.82-1.89,1.06-.85,1.88-1.93,2.45-3.21.57-1.28.85-2.8.85-4.51s-.29-3.23-.87-4.51c-.58-1.28-1.41-2.35-2.47-3.19Zm-2.99,7.88c0,1.51-.09,2.84-.27,3.95-.18,1.1-.48,2.02-.9,2.73-.41.7-.97,1.23-1.65,1.58-.69.35-1.57.52-2.63.52h-1.59v-17.88h1.59c1,0,1.86.18,2.55.53.68.35,1.24.89,1.66,1.61.43.74.75,1.69.94,2.82.2,1.15.3,2.54.3,4.13Z"/><polygon class="cls-1" points="63.46 136.66 65.13 139.47 65.13 153.26 63.46 156.07 63.46 156.58 72.73 156.58 72.73 156.07 71.06 153.26 71.06 139.47 72.73 136.66 72.73 136.15 63.46 136.15 63.46 136.66"/><path class="cls-1" d="m93.49,138.64c-1.06-.84-2.34-1.47-3.81-1.88-1.46-.41-3.11-.61-4.9-.61h-8.92v.51l1.65,2.79v13.8l-1.67,2.82v.51h8.89c1.82,0,3.49-.21,4.96-.62,1.49-.41,2.77-1.05,3.82-1.89,1.06-.85,1.88-1.93,2.45-3.21.57-1.28.85-2.8.85-4.51s-.29-3.23-.87-4.51c-.58-1.28-1.41-2.35-2.47-3.19Zm-5.82,16.14c-.69.35-1.57.52-2.63.52h-1.59v-17.88h1.59c1,0,1.86.18,2.55.53.68.35,1.24.89,1.66,1.61.43.74.75,1.69.94,2.82.2,1.15.3,2.54.3,4.13,0,1.51-.09,2.83-.27,3.95-.18,1.1-.48,2.02-.9,2.73-.41.7-.97,1.23-1.65,1.58Z"/><polygon class="cls-1" points="108.64 136.66 108.64 136.15 99.37 136.15 99.37 136.66 101.04 139.47 101.04 153.26 99.37 156.07 99.37 156.58 108.64 156.58 108.64 156.07 106.98 153.26 106.98 139.47 108.64 136.66"/></svg>