<?xml version="1.0" encoding="UTF-8"?><svg id="Layer_1" xmlns="http://www.w3.org/2000/svg" viewBox="0 0 109.72 127.39"><defs><style>.cls-1{fill:#fff;}</style></defs><polygon class="cls-1" points="33.94 9.8 33.94 9.8 19.69 18.03 33.94 26.27 33.94 88.19 25.46 93.09 16.97 97.99 16.97 88.2 8.49 83.3 0 78.4 0 127.39 16.97 117.59 25.45 112.7 33.94 107.79 42.43 102.89 50.92 97.99 50.92 0 42.42 4.9 33.94 9.8"/><path class="cls-1" d="m109.72,29.4l-8.48-4.9-8.49-4.9-8.48-4.9-8.49-4.9-8.48-4.9L58.8,0v97.99l8.49,4.9,8.49,4.9v-39.19l8.49,4.9,8.49,4.9v39.19l8.49,4.91,8.48,4.89v-58.79l-8.49-4.9,8.49-4.9v-29.4Zm-16.97,19.6l-8.49,4.9-8.49,4.9v-29.4l8.49,4.91,8.49,4.89v9.81Z"/></svg>