<?xml version="1.0" encoding="UTF-8"?><svg id="Layer_1" xmlns="http://www.w3.org/2000/svg" viewBox="0 0 144.7 144.7"><defs><style>.cls-1{fill:#fff;}</style></defs><path class="cls-1" d="m72.35,0C32.39,0,0,32.39,0,72.35s32.39,72.35,72.35,72.35,72.35-32.39,72.35-72.35S112.31,0,72.35,0Zm49.58,84.66c-.52.48-1.05.93-1.61,1.35-1.97,1.51-4.17,2.69-6.48,3.49,0,0-.02,0-.03.01-1.47.51-2.39,1.97-2.13,3.51.1.6.15,1.22.15,1.85v14.96c0,4.41-3.57,7.98-7.98,7.98h-59.65c-4.41,0-7.98-3.57-7.98-7.98v-16.17c0-.69.07-1.37.2-2.02.09-.46-.21-.91-.68-.97,0,0,0,0,0,0-3.05-.44-6.01-1.52-8.67-3.1-2.65-1.6-5-3.7-6.9-6.18-1.89-2.48-3.32-5.35-4.12-8.41-.41-1.52-.66-3.1-.76-4.68s-.06-3.18.15-4.76c.41-3.17,1.47-6.28,3.1-9.07,1.22-2.06,2.74-3.94,4.52-5.55,0,0,0,0,.01,0,.62-.56,1.26-1.08,1.94-1.57,2.61-1.9,5.62-3.27,8.78-3.97,1.58-.34,3.2-.51,4.81-.48.4.01.8,0,1.2.05l1.05.12.15.02.6.07c.2.03.39.08.58.12l.18.04.58.13c.89-1.6,1.93-3.13,3.1-4.56.54-.67,1.11-1.32,1.71-1.95,1.33-1.4,2.79-2.68,4.36-3.84,1.93-1.42,4.02-2.63,6.23-3.6,3.99-1.77,8.38-2.65,12.75-2.62,4.36.05,8.73,1.01,12.66,2.84,3.94,1.83,7.37,4.61,10.02,7.89,1.32,1.65,2.45,3.42,3.42,5.24.23.47.47.92.68,1.39.17.4.35.8.52,1.2.74-.27,1.5-.5,2.27-.69,1.31-.32,2.67-.53,4.03-.62,3.05-.19,6.18.2,9.14,1.23,2.96,1.03,5.74,2.68,8.09,4.84,2.35,2.16,4.26,4.83,5.56,7.79.29.75.6,1.5.86,2.27.21.78.45,1.56.62,2.35.13.8.27,1.6.37,2.4l.14,2.42c-.02,3.23-.67,6.49-1.98,9.45-1.29,2.96-3.21,5.64-5.56,7.8Z"/><path class="cls-1" d="m102.17,90.44c-1.34-.24-2.66-.59-3.92-1.05-.77-.28-1.53-.6-2.27-.97-1.42-.69-2.76-1.53-4-2.49-.21-.16-.41-.32-.61-.49-1.58,1.51-3.36,2.84-5.28,3.94-.79.46-1.6.87-2.44,1.24-3.88,1.72-8.16,2.54-12.38,2.42-.06,0-.12,0-.18,0-3.71-.13-7.37-1.02-10.72-2.47-.52-.22-1.03-.46-1.53-.71-.08-.04-.16-.08-.24-.12-.22-.11-.43-.22-.65-.34-1.9-1.02-3.69-2.23-5.34-3.59-.13.11-.27.23-.41.33,0,0,0,0,0,0-.98.79-2.03,1.51-3.14,2.12-.77.42-1.56.8-2.38,1.13-.59.24-1.2.46-1.81.65h-.01c-1.28.38-2.33,1.35-2.64,2.64-.08.32-.12.65-.12,1v16.17c0,1.16.94,2.1,2.1,2.1h59.65c1.16,0,2.1-.95,2.1-2.1v-14.96s0-.03,0-.05c-.02-2.17-1.63-4.02-3.77-4.4Z"/><path class="cls-1" d="m123.25,63.72l-.42-1.81c-.18-.59-.4-1.18-.59-1.77-.89-2.32-2.21-4.49-3.91-6.38-3.38-3.76-8.29-6.33-13.66-6.73-1.84-.13-3.71-.02-5.55.35.13.37.26.74.38,1.11,1.22,3.83,1.8,7.77,1.81,11.7,0-3.94-.98-7.86-2.79-11.3-.21-.41-.44-.82-.68-1.21-.26-.44-.53-.87-.81-1.29-.08-.12-.16-.23-.24-.34-.2-.28-.41-.55-.61-.83-.29-.38-.6-.75-.91-1.12-1.24-1.46-2.63-2.77-4.1-3.93-.32-.25-.64-.49-.96-.72-1.37-.99-2.8-1.86-4.27-2.62.92.83,1.78,1.7,2.59,2.62.26.29.5.57.75.87.32.41.64.81.95,1.21.25.36.51.71.76,1.07l.13.19c.28.43.57.84.83,1.28.06.1.12.2.18.29.2.34.41.67.6,1.01,1.98,3.49,3.37,7.23,4.2,11.07-.83-3.85-2.59-7.49-5.07-10.48-.29-.36-.6-.71-.92-1.05-.34-.37-.7-.74-1.06-1.09-.1-.1-.21-.19-.31-.29-.26-.23-.52-.46-.77-.68-.37-.32-.75-.61-1.12-.91-1.52-1.17-3.15-2.16-4.83-2.99-3.37-1.65-6.93-2.65-10.48-3.13-1.78-.23-3.57-.33-5.35-.25-1.78.09-3.55.3-5.28.7-3.22.71-6.3,1.96-9.12,3.68-.34.28-.66.58-.98.87-1.41,1.33-2.68,2.82-3.79,4.41,0,0,0,0,0,0,1.33.69,2.57,1.52,3.71,2.43.29.24.6.46.88.71l.82.77c.57.49,1.04,1.08,1.55,1.6.5.55.93,1.15,1.39,1.71l.63.9c.2.3.42.59.6.9,1.44,2.3,2.53,4.78,3.2,7.36-.7-2.57-2.02-4.97-3.75-6.95-1.83-2.13-4.21-3.71-6.68-4.8-1.43-.62-2.9-1.08-4.38-1.37-.04,0-.08-.01-.12-.02l.79.48c.66.37,1.23.85,1.84,1.27.59.44,1.14.94,1.71,1.4l.79.75c.26.26.53.5.77.77,1.87,1.97,3.43,4.18,4.6,6.58-1.2-2.39-2.96-4.47-5.06-6.07-2.22-1.73-4.86-2.8-7.5-3.38-1.52-.32-3.06-.48-4.56-.47h-.29c-.52.01-1.04.04-1.55.09-.48.04-.96.11-1.43.18-.58.12-1.15.19-1.71.34,0,0-.03,0-.03,0-.04,0-.08.02-.11.03l-.91.24c-.08.02-.16.04-.23.06-.22.07-.44.15-.66.21-1.18.4-2.31.88-3.4,1.47-.48.25-.95.53-1.4.81-1.47,1.24-2.79,2.68-3.88,4.28-1.4,2.03-2.41,4.34-2.91,6.79-.51,2.45-.5,5.03.03,7.5,1.04,4.95,4.21,9.48,8.55,12.35,2.7,1.83,5.86,2.99,9.12,3.31,1.93.2,3.9.09,5.83-.34,1.29-.28,2.56-.7,3.78-1.25.45-.2.9-.42,1.35-.65.17-.09.34-.18.52-.27.02,0,.03-.02.05-.03.18-.1.37-.21.55-.32,0,0,0,0,.01,0,.18-.11.37-.22.55-.34.17-.11.34-.22.51-.34.23-.16.46-.32.68-.48.25-.18.5-.38.75-.58.28.2.56.39.84.58.12.08.24.16.37.24.14.09.28.18.42.26,1.8,1.09,3.72,1.96,5.69,2.6,3.56,1.16,7.28,1.55,10.9,1.41,3.64-.16,7.2-.89,10.58-2.18.92-.35,1.83-.74,2.73-1.17.75-.36,1.5-.74,2.23-1.16.46-.26.91-.53,1.36-.81.13-.07.25-.15.38-.23-1.68-1.99-3.02-4.25-3.94-6.65-.23-.68-.48-1.35-.68-2.04-.16-.7-.34-1.39-.49-2.09-.1-.71-.21-1.42-.3-2.13l-.09-2.14.12,2.14c.09.71.22,1.41.33,2.12.15.7.37,1.38.55,2.07.23.68.51,1.33.76,2,1.05,2.37,2.54,4.52,4.37,6.32.05.05.11.11.17.16.02.02.03.03.05.05.11.11.22.21.34.31.32.29.65.58.99.84.54.43,1.1.83,1.69,1.2.19.13.39.25.58.37,1.23.74,2.54,1.34,3.89,1.79,1.33.45,2.7.75,4.07.91-.29-.1-.57-.21-.85-.33-.76-.32-1.51-.67-2.23-1.06-1.39-.75-2.7-1.64-3.89-2.65-.2-.17-.39-.34-.59-.51-.13-.11-.24-.22-.37-.34-.26-.24-.5-.47-.75-.72-.31-.31-.6-.63-.89-.97-.11-.12-.21-.24-.32-.37-.12-.15-.25-.3-.37-.45-.07-.09-.14-.18-.21-.26-1.6-2.06-2.84-4.37-3.67-6.81-.2-.69-.43-1.37-.6-2.06-.13-.71-.28-1.41-.4-2.11-.07-.71-.16-1.42-.21-2.14v-2.14s.03,2.14.03,2.14c.06.71.16,1.42.24,2.13.12.71.32,1.4.47,2.09.2.68.45,1.35.68,2.02.95,2.41,2.36,4.62,4.11,6.49.05.05.11.11.16.17.02.02.03.04.05.05.06.06.12.13.18.19.26.26.52.52.79.76.62.55,1.26,1.06,1.93,1.53.19.13.38.26.57.39,1.2.79,2.48,1.44,3.81,1.95,2.57.98,5.3,1.42,7.97,1.33,1.38-.05,2.73-.24,4.05-.55,2.08-.5,4.05-1.33,5.84-2.41.74-.61,1.44-1.28,2.08-2,3.4-3.77,5.26-8.69,5.26-13.65l-.08-1.86c-.08-.61-.18-1.23-.26-1.84Z"/></svg>