<?xml version="1.0" encoding="UTF-8"?><svg id="Layer_1" xmlns="http://www.w3.org/2000/svg" viewBox="0 0 127.46 155.64"><defs><style>.cls-1{fill:#fff;}</style></defs><path class="cls-1" d="m33.35,93.56l-.5-.68v8.26h-2.57v-12.69h1.97l7.53,8.98v-8.98h2.57v12.69h-2.57l-5.63-6.49v4.93l-.81,1.53v-7.55Z"/><path class="cls-1" d="m50.65,99.27c.59-.1,1.12-.38,1.6-.85.67-.67,1-1.49,1-2.46v-7.51h2.61v7.51c0,1.45-.53,2.7-1.58,3.76-1.13,1.12-2.5,1.69-4.13,1.69s-3-.56-4.13-1.69c-1.05-1.06-1.58-2.31-1.58-3.76v-7.51h2.61v7.51c0,.97.34,1.79,1.01,2.46.6.6,1.29.89,2.08.89.08,0,.17,0,.25,0-.69-.06-1.31-.35-1.84-.89-.67-.67-1.01-1.49-1.01-2.46v-7.51h.5v7.51c0,.97.34,1.79,1.01,2.46.47.47,1,.75,1.59.85Z"/><path class="cls-1" d="m61.03,93.56l-.5-.68v8.26h-2.57v-12.69h1.97l7.53,8.98v-8.98h2.57v12.69h-2.57l-5.63-6.49v4.93l-.81,1.53v-7.55Z"/><path class="cls-1" d="m75.29,90.55h-.55v10.6h-2.62v-12.69h11.21v2.09h-7.23v3.21h7.24l-.87,2.09h-6.37v1.82l-.82,1.53v-8.65Zm.73,8.5l-1.06,2.09h7.94l.87-2.09h-7.75Z"/><path class="cls-1" d="m95.91,88.45l-.87,2.09h-6.29c-.4,0-.72.12-.96.37-.24.24-.36.57-.36.97,0,.59.43,1.03,1.29,1.35.52.19,1.32.41,2.4.66,1.09.25,2.02.55,2.81.9,1.55.69,2.32,1.77,2.29,3.23-.02.98-.44,1.77-1.26,2.35-.74.51-1.62.76-2.65.76h-7.85l.87-2.09h6.98c.38,0,.68-.08.9-.23.26-.17.39-.44.4-.81.01-.63-.31-1.09-.96-1.38-.54-.25-1.46-.51-2.76-.79-1.29-.28-2.33-.6-3.11-.98-1.3-.61-1.95-1.6-1.95-2.96,0-1.04.4-1.89,1.2-2.54.74-.6,1.65-.9,2.72-.9h7.16Zm-6.14,2.09c-.4,0-.72.12-.96.37-.24.24-.36.57-.36.97,0,.59.43,1.03,1.29,1.35.52.19,1.32.41,2.4.66,1.09.25,2.02.55,2.81.9,1.55.69,2.32,1.77,2.29,3.23-.02.98-.44,1.77-1.26,2.35-.74.51-1.62.76-2.65.76h-.52c1.03,0,1.91-.25,2.65-.76.82-.58,1.24-1.36,1.26-2.35.02-1.46-.74-2.54-2.29-3.23-.79-.35-1.72-.65-2.81-.9-1.09-.25-1.89-.47-2.4-.66-.86-.31-1.29-.76-1.29-1.35,0-.41.12-.73.36-.97.24-.25.56-.37.96-.37h.52Zm6.64-2.09h.52l-.87,2.09h-.52l.87-2.09Z"/><path class="cls-1" d="m79.64,35.01c-.86-.67-1.91-1.16-3.2-1.51-2.92-.78-6.02-1.3-9.49-1.59h-.17c-.56-.06-1.14-.11-1.6-.31-.77-.34-1.54-.73-2.28-1.11-.58-.29-1.17-.6-1.77-.88-3.57-1.68-7.07-2.53-10.69-2.61-.33,0-.66,0-1,0-2.64,0-5.28.23-7.89.68-2.61.45-5.2,1.13-7.74,2.04-1.58.56-3.02,1.03-4.57,1.03-.12,0-.23,0-.35,0-.11,0-.22,0-.34,0-.42,0-.84.03-1.25.07-.16.01-.32.02-.49.04-.15,0-.57.04-.75.38-.07.12-.15.37.04.71,0,.01.02.03.02.04,0,.02-.04.06-.1.12-.54.58-.84,1.15-.93,1.81-.09.66-.2,1.32-.29,1.98-.12.74-.23,1.5-.34,2.26-.04.32.02.77.27,1.09-.57.49-.3,1.08-.15,1.4l.04.08.19.43.43-.19c.24-.11.4-.34.41-.6,0-.29.1-.49.29-.67.16-.14.2-.35.2-.5,0-.15-.03-.36-.19-.51-.22-.21-.21-.44-.13-.94.19-1.18.4-2.06,1.37-2.53.66-.32,1.35-.7,2.03-1.11.23-.14.36-.36.47-.53.03-.06.07-.11.1-.16l.31-.43-.46-.26c-.05-.03-.1-.06-.15-.1-.17-.12-.37-.26-.65-.28-.29-.01-.6-.02-.99-.02-.14,0-.27,0-.41,0l.07-.14,6.47.09-.03.93c11.36.66,21.5,1.42,30.97,2.35l-.24.65h1.21c.07,0,.15,0,.22.04l.02-.04.51-1.18.25-.58-.63-.07c-.74-.08-1.49-.16-2.23-.24.12-.02.24-.06.35-.09.06-.02.12-.04.18-.06l.57-.14-.26-.52c-.03-.06-.06-.13-.09-.19-.02-.05-.05-.1-.07-.15.02.01.04.03.07.04.17.1.44.23.73.26.48.05.96.09,1.44.13.65.05,1.32.1,1.97.18,2.28.26,4.71.58,7.04,1.35.24.08.48.17.73.27-.42-.06-.82-.09-1.24-.09h-.67s.13.57.13.57c.05.21.14.47.39.62.07.04.13.08.2.12.15-.14.32-.21.51-.21h4.6c-.19-.42-.5-.8-.93-1.14Zm-45.87-3.97c.96-.33,1.91-.63,2.87-.9-.06.17-.07.33-.06.45.01.2.07.37.15.53l-2.96-.08Zm18.28,1.68l.44.05c.31.04.63.08.95.12l1.81.22c1.61.2,3.25.39,4.89.59-8.5-.81-17.05-1.29-25.48-1.44l12.27.17.06-.93c-.83-.1-1.68-.18-2.49-.26-.53-.06-1.06-.11-1.59-.16-1.47-.15-3.17-.33-4.85-.56-.01,0-.03-.02-.05-.03.01,0,.02-.02.03-.02.24-.08.51-.18.78-.27.89-.32,1.81-.65,2.72-.82,2.12-.41,3.97-.67,5.67-.8.64-.05,1.28-.07,1.91-.07,2.21,0,4.38.29,6.43.88,2.1.59,4.22,1.6,6.6,3.12l-9.99-.85-.46-.04-.04.46v.15s-.05.45-.05.45l.45.06Zm13.83,3.91h-1.39l-1.45,3.81h0c-.25-.03-.51-.07-.76-.1-.56-.07-1.13-.15-1.71-.16-1.14-.04-2.28-.07-3.41-.11-.15,0-.31,0-.47-.01-.25,0-.5-.01-.75-.02h-.07l-1.52-.05h-.48s0,1.27,0,1.27h.46s1.61.05,1.61.05h.75s.47.03.47.03l2.19.05v-.49c0-.07.03-.11.1-.12.07,0,.12.02.15.08l.34.55h.11c.37.01.73.01,1.09.01.31,0,.62,0,.93,0h1.27l.35-.56c.04-.06.1-.08.16-.08.07,0,.1.05.1.12v.26l.04-.09,1.92-4.42s-.02,0-.03,0Zm14.85,0h-4.76s-.04,0-.06,0c.07.04.14.08.21.13.97.58,1.97,1.17,2.99,1.72.18.1.37.21.41.25,0,.01.01.1-.03.4,0,.04,0,.07-.01.11-.25-.1-.49-.19-.71-.29-.19-.08-.36-.13-.51-.13-.18,0-.34.06-.45.17v1.58c.04.16.09.32.14.47.05.17.1.35.15.52l.08.29.3.04.11.02h.11s.01.01.01.01h0s-.2.51-.2.51l.52.13c.12.03.23.05.33.05.29,0,.49-.11.64-.25v-3.44c0-.07.02-.14.07-.19.05-.05.12-.07.19-.07h.53c0-.24,0-.49.01-.73,0-.17,0-.35,0-.52,0-.28-.02-.54-.08-.78Z"/><path class="cls-1" d="m49.95,39.87c-.1.25-.15.52-.15.79,0,.17.02.33.06.49h-.37c-.62-.02-1.25-.04-1.87-.06-.81-.02-1.62-.04-2.42-.06-.73-.02-1.46-.04-2.19-.06-.56-.01-1.12-.03-1.68-.04h-.1c-.49,0-.86.1-1.18.32-.04.02-.07.05-.11.08-.11.08-.22.15-.35.22-.06.03-.12.07-.19.11l-.68.39-.02-.79c-.04-1.13-.32-2.08-.84-2.87-.35-.52-.8-.96-1.37-1.34-.77-.51-1.64-.77-2.6-.77-.15,0-.3,0-.45.02-1.44.12-2.56.77-3.33,1.95-.25.38-.46.81-.64,1.31l-.11.31h-1.25l.16-.59c.2-.75.56-1.48,1.01-2.05.08-.11.17-.21.26-.3,1.18-1.35,2.62-2.04,4.29-2.04.45,0,.92.05,1.39.15,1.2.26,2.19.79,2.95,1.57.7.72,1.22,1.65,1.51,2.79.02.08.04.12.05.14.02,0,.07.01.15.02.06,0,.12,0,.17,0,.99.03,1.98.06,2.96.08.73.02,1.46.04,2.19.06.83.02,1.66.05,2.5.07.6.01,1.21.03,1.82.05h.44s0,.03,0,.04Z"/><path class="cls-1" d="m66.14,38.2v5.12l-.16.89-.38-3.1c-.12-.98.08-2,.54-2.91Z"/><path class="cls-1" d="m75.39,36.43c-.1.13-.15.28-.15.45v1.31c-.81-1.23-2.16-1.84-4.05-1.84-.14,0-.29,0-.44,0-2.15.1-3.54,1.57-4.13,4.37v-3.33c.56-.8,1.32-1.47,2.23-1.91.81-.39,1.7-.6,2.6-.6,1.47,0,2.87.54,3.95,1.53Z"/><path class="cls-1" d="m75.78,38.57c-.05-.05-.07-.11-.07-.19v-1.5s0-.08.02-.12c.5.53.9,1.19,1.17,1.89h-.93c-.07,0-.14-.03-.19-.08Z"/><path class="cls-1" d="m32.73,44.39l-2.63-6.13-.57-1.33-.03-.07c-.03-.07-.08-.12-.15-.17-.07-.05-.15-.07-.22-.07h-1.55c-.08,0-.16.02-.23.07-.07.05-.12.1-.15.17l-3.21,7.49c-.03.06-.04.11-.03.15,0,.05.02.08.05.11.02.03.06.05.1.07.04.01.08.02.12.02h1.9c.07,0,.15-.02.22-.07.07-.05.12-.1.15-.17l.31-.66c.03-.07.08-.12.15-.17.07-.05.15-.07.23-.07h2.33c.07,0,.15.02.22.07.07.05.13.11.16.17l.29.66c.04.07.09.12.16.17.07.05.15.07.22.07h1.89c.12,0,.2-.04.24-.11.04-.07.05-.14.02-.21Zm-3.73-2.78s-.08.07-.16.07h-.98c-.08,0-.14-.02-.17-.07-.03-.05-.03-.1,0-.17l.56-1.34c.03-.07.06-.1.1-.1s.07.03.1.1c.09.22.18.44.29.69.1.25.19.46.26.65.04.07.04.13,0,.17Z"/><path class="cls-1" d="m39.96,36.7c-.05-.05-.11-.08-.19-.08h-1.66c-.07,0-.14.03-.19.08s-.07.11-.07.19v4.48c0,.29-.05.52-.14.72-.09.19-.21.33-.34.44-.14.11-.28.18-.44.23-.15.04-.29.07-.42.07s-.27-.02-.42-.07c-.15-.05-.3-.12-.44-.23-.14-.11-.25-.25-.34-.44-.09-.19-.14-.43-.14-.72v-4.48c0-.07-.03-.14-.08-.19-.05-.05-.11-.08-.18-.08h-1.67c-.07,0-.14.03-.19.08-.05.05-.07.11-.07.19v4.48c0,.52.08,1,.25,1.43.17.43.41.79.72,1.1.31.3.68.54,1.11.7.44.17.92.25,1.45.25s1.01-.08,1.45-.25c.44-.16.81-.4,1.12-.7.31-.3.54-.67.71-1.1.16-.43.25-.9.25-1.43v-4.48c0-.07-.03-.14-.08-.19Z"/><path class="cls-1" d="m47.21,36.69c-.05-.05-.11-.07-.19-.07h-5.84c-.07,0-.14.02-.19.07-.05.06-.08.12-.08.19v1.5c0,.07.03.14.08.19.05.05.11.08.19.08h1.57c.08,0,.15.02.2.07.05.05.07.12.07.19v5.53c0,.07.03.14.08.19.05.05.11.08.19.08h1.66c.08,0,.15-.03.2-.08.05-.05.07-.11.07-.19v-5.53c0-.07.03-.14.08-.19.05-.05.11-.07.19-.07h1.55c.08,0,.15-.03.19-.08.05-.05.07-.11.07-.19v-1.5c0-.07-.02-.14-.07-.19Z"/><path class="cls-1" d="m55.93,40.03c-.05-.35-.15-.67-.29-.99-.22-.51-.52-.96-.9-1.33s-.82-.68-1.33-.9c-.51-.22-1.05-.33-1.63-.33s-1.11.11-1.62.33c-.51.22-.95.52-1.33.9-.37.38-.67.82-.89,1.33-.1.24-.18.49-.24.74-.06.29-.09.58-.09.88,0,.15,0,.29.02.44.05.42.15.81.31,1.19.22.51.52.96.89,1.33.38.38.82.68,1.33.9.51.22,1.05.33,1.62.33s1.12-.11,1.63-.33c.51-.22.95-.52,1.33-.9s.68-.82.9-1.33c.14-.31.23-.64.29-.99.03-.21.05-.42.05-.64s-.01-.43-.05-.64Zm-2.3,1.43c-.1.25-.25.47-.43.66-.19.19-.4.35-.64.46-.24.11-.51.17-.78.17s-.53-.06-.77-.17c-.24-.11-.46-.27-.64-.46-.18-.19-.32-.41-.43-.66-.04-.1-.07-.2-.09-.3-.04-.16-.06-.32-.06-.49,0-.27.05-.54.15-.79,0,0,0-.01,0-.02.1-.24.24-.46.42-.64.18-.19.39-.34.64-.45.24-.11.5-.17.77-.17s.53.06.78.17c.24.12.45.27.64.45.18.19.33.41.43.66.1.25.15.52.15.79s-.05.55-.15.8Z"/><path class="cls-1" d="m66.07,36.7s-.09-.07-.15-.07c0,0-.02,0-.03,0h-1.54c-.07,0-.15.02-.23.07-.08.05-.15.1-.19.16l-2.13,3.12c-.04.06-.08.09-.15.09s-.11-.03-.15-.09l-2.13-3.12c-.04-.06-.09-.11-.18-.16-.08-.04-.15-.07-.23-.07h-1.54c-.07,0-.14.03-.19.08s-.08.11-.08.19v7.56c0,.07.03.14.08.19s.11.08.19.08h1.66c.07,0,.14-.03.19-.08.05-.05.07-.11.07-.19v-3.56c0-.07.03-.11.1-.12.07,0,.12.02.15.08l.34.55,1.52,2.45c.04.06.11.09.19.09s.14-.03.18-.09l1.52-2.44.35-.56c.04-.06.1-.08.16-.08.07,0,.1.05.1.12v3.56c0,.07.02.14.07.19s.12.08.19.08h1.66c.07,0,.14-.03.19-.08s.08-.11.08-.19v-7.56c0-.07-.03-.14-.08-.19Z"/><path class="cls-1" d="m75.16,39.04c-.22-.51-.52-.96-.9-1.33s-.82-.68-1.33-.9c-.51-.22-1.05-.33-1.62-.33s-1.12.11-1.62.33c-.51.22-.96.52-1.33.9s-.67.82-.89,1.33c-.22.51-.33,1.05-.33,1.62s.11,1.12.33,1.62c.22.51.52.96.89,1.33s.82.68,1.33.9c.51.22,1.05.33,1.62.33s1.12-.11,1.62-.33c.51-.22.96-.52,1.33-.9s.68-.82.9-1.33c.22-.51.33-1.05.33-1.62s-.11-1.12-.33-1.62Zm-2.01,2.42c-.1.25-.25.47-.43.66-.19.19-.4.35-.65.46s-.5.17-.77.17-.53-.06-.77-.17c-.24-.11-.46-.27-.64-.46-.18-.19-.32-.41-.43-.66-.1-.25-.15-.51-.15-.8s.05-.54.15-.79c.1-.25.24-.48.43-.66.18-.19.39-.34.64-.45.24-.11.5-.17.77-.17s.53.06.77.17c.24.12.46.27.65.45.18.19.33.41.43.66.1.25.15.52.15.79s-.05.55-.15.8Z"/><path class="cls-1" d="m82,36.69c-.05-.05-.11-.07-.19-.07h-5.84s-.04,0-.06,0c-.05,0-.09.03-.13.07-.02.02-.04.05-.05.07-.01.04-.02.07-.02.12v1.5c0,.07.02.14.07.19s.12.08.19.08h1.57c.08,0,.15.02.19.07.05.05.07.12.07.19v5.53c0,.07.02.14.07.19.05.05.12.08.19.08h1.66c.08,0,.15-.03.19-.08.05-.05.07-.11.07-.19v-5.53c0-.07.02-.14.07-.19.05-.05.12-.07.19-.07h1.55c.08,0,.15-.03.19-.08.05-.05.07-.11.07-.19v-1.5c0-.07-.02-.14-.07-.19Z"/><path class="cls-1" d="m85.13,36.7c-.05-.05-.11-.08-.19-.08h-1.66c-.08,0-.15.03-.19.08-.05.05-.07.11-.07.19v7.56c0,.07.02.14.07.19.05.05.11.08.19.08h1.66c.07,0,.14-.03.19-.08.05-.05.08-.11.08-.19v-7.56c0-.07-.03-.14-.08-.19Z"/><path class="cls-1" d="m94.98,36.71c-.03-.06-.09-.09-.17-.09h-1.84c-.07,0-.15.02-.22.07-.07.05-.12.11-.16.17l-1.94,4.45c-.04.07-.08.1-.14.1-.06,0-.11-.03-.15-.1l-1.95-4.45c-.04-.07-.09-.12-.16-.17-.07-.05-.15-.07-.22-.07h-1.81c-.09,0-.16.03-.19.1-.03.07-.03.14,0,.22l3.34,7.54c.04.07.09.12.16.17.07.05.15.07.22.07h1.47c.07,0,.15-.02.22-.07.07-.05.12-.1.16-.17l3.38-7.58c.03-.06.02-.12-.01-.18Z"/><path class="cls-1" d="m102.99,39.04c-.22-.51-.52-.96-.9-1.33s-.82-.68-1.33-.9c-.51-.22-1.05-.33-1.62-.33s-1.12.11-1.63.33c-.51.22-.95.52-1.32.9-.38.38-.68.82-.9,1.33-.22.51-.33,1.05-.33,1.62s.11,1.12.33,1.62c.22.51.52.96.9,1.33.37.38.82.68,1.32.9.51.22,1.05.33,1.63.33s1.11-.11,1.62-.33c.51-.22.96-.52,1.33-.9s.68-.82.9-1.33c.22-.51.33-1.05.33-1.62s-.11-1.12-.33-1.62Zm-2.01,2.42c-.1.25-.24.47-.43.66-.18.19-.4.35-.64.46s-.5.17-.77.17-.53-.06-.78-.17c-.24-.11-.45-.27-.64-.46-.18-.19-.32-.41-.43-.66-.1-.25-.15-.51-.15-.8s.05-.54.15-.79c.1-.25.25-.48.43-.66.18-.19.39-.34.64-.45.24-.11.5-.17.78-.17s.53.06.77.17c.24.12.46.27.64.45.19.19.33.41.43.66.1.25.15.52.15.79s-.05.55-.15.8Z"/><polygon class="cls-1" points="36.73 17.71 33.94 22.54 30.65 22.54 33.44 17.71 30.65 12.89 33.94 12.89 36.73 17.71"/><polygon class="cls-1" points="36.73 17.71 33.94 22.54 30.65 22.54 33.44 17.71 30.65 12.89 33.94 12.89 36.73 17.71"/><polygon class="cls-1" points="42.24 17.71 39.46 22.54 36.16 22.54 38.95 17.71 36.16 12.89 39.46 12.89 42.24 17.71"/><polygon class="cls-1" points="42.24 17.71 39.46 22.54 36.16 22.54 38.95 17.71 36.16 12.89 39.46 12.89 42.24 17.71"/><polygon class="cls-1" points="47.76 17.71 46.42 20.02 46.34 20.18 44.97 22.54 41.68 22.54 44.46 17.71 41.68 12.89 44.97 12.89 46.31 15.21 46.42 15.41 47.76 17.71"/><polygon class="cls-1" points="47.76 17.71 46.42 20.02 46.34 20.18 44.97 22.54 41.68 22.54 44.46 17.71 41.68 12.89 44.97 12.89 46.31 15.21 46.42 15.41 47.76 17.71"/><path class="cls-1" d="m54.33,15.73c-.22-.35-.47-.68-.74-.97-.27-.3-.57-.55-.9-.76-.33-.21-.7-.37-1.11-.49s-.87-.17-1.38-.17c-.62,0-1.19.12-1.74.35-.54.23-1.01.54-1.41.94l1.25,2.16c.1-.23.23-.44.4-.61.19-.2.42-.37.67-.49.26-.12.54-.19.83-.19.45,0,.83.1,1.15.29.31.19.59.46.81.81.04.06.09.11.17.14.07.03.15.03.23,0l1.64-.65c.07-.03.12-.08.14-.15.02-.07.01-.13-.02-.2Zm.02,3.75c-.02-.07-.07-.11-.14-.15l-1.64-.65c-.07-.03-.15-.03-.22,0-.07.03-.13.07-.17.14-.2.32-.47.59-.81.79-.34.21-.73.3-1.15.3-.29,0-.57-.06-.83-.18-.26-.13-.48-.29-.67-.49-.17-.18-.3-.38-.41-.61l-1.24,2.15c.4.39.88.7,1.41.94.54.23,1.12.35,1.74.35.5,0,.95-.06,1.35-.17.41-.11.78-.28,1.12-.48.33-.21.64-.46.91-.75.27-.29.51-.62.74-.99.04-.07.05-.14.02-.2Zm-7.93-4.08c-.12.19-.23.39-.32.61-.23.53-.35,1.1-.35,1.7s.11,1.17.35,1.7c.09.22.2.42.32.61l1.33-2.31-1.33-2.31Z"/><path class="cls-1" d="m57.61,15.68c.05-.06.12-.08.2-.08h3.6c.08,0,.15-.03.2-.08.06-.05.08-.12.08-.2v-1.57c0-.07-.02-.14-.08-.2-.05-.05-.12-.08-.2-.08h-5.89c-.07,0-.14.03-.2.08-.05.06-.08.12-.08.2v7.92c0,.07.03.14.08.2.06.05.12.08.2.08h5.89c.08,0,.15-.03.2-.08.06-.06.08-.12.08-.2v-1.6c0-.08-.02-.15-.08-.2-.05-.06-.12-.08-.2-.08h-3.6c-.08,0-.15-.03-.2-.08-.06-.06-.08-.12-.08-.2v-.44c0-.07.03-.14.08-.2.05-.05.12-.08.2-.08h3.13c.08,0,.15-.03.2-.08.06-.05.08-.12.08-.2v-1.6c0-.07-.03-.14-.08-.2-.05-.05-.12-.08-.2-.08h-3.13c-.08,0-.15-.03-.2-.08-.06-.06-.08-.12-.08-.2v-.49c0-.07.03-.14.08-.2Z"/><path class="cls-1" d="m71.09,13.55c-.05-.05-.12-.08-.19-.08h-1.71c-.08,0-.15.03-.2.08-.06.06-.08.12-.08.2v4.14c0,.07-.02.12-.07.13-.05,0-.1-.02-.15-.08l-3.01-4.25c-.05-.06-.11-.11-.2-.15-.08-.04-.16-.07-.24-.07h-1.74c-.07,0-.14.03-.2.08-.05.06-.08.12-.08.2v7.92c0,.07.03.14.08.2.05.05.12.08.2.08h1.73c.07,0,.14-.03.2-.08.06-.06.08-.12.08-.2v-4.14c0-.08.03-.12.07-.13.05-.01.1,0,.15.07l3.02,4.24c.05.07.11.12.2.16s.16.07.24.07h1.71c.07,0,.14-.03.2-.08.05-.06.08-.12.08-.2v-7.92c0-.07-.03-.14-.08-.2Z"/><path class="cls-1" d="m78.84,13.55c-.05-.05-.12-.08-.2-.08h-6.11c-.08,0-.15.03-.2.08-.06.06-.08.12-.08.2v1.57c0,.08.02.15.08.2.05.06.12.08.2.08h1.64c.08,0,.15.02.2.08.05.06.07.12.07.2v5.79c0,.07.03.14.08.2.06.05.12.08.2.08h1.74c.08,0,.15-.03.2-.08.05-.06.07-.12.07-.2v-5.79c0-.07.03-.14.08-.2.05-.06.12-.08.2-.08h1.62c.08,0,.15-.03.2-.08.05-.05.07-.12.07-.2v-1.57c0-.07-.02-.14-.07-.2Z"/><path class="cls-1" d="m87.3,21.62c-.25-.34-.54-.71-.87-1.12-.32-.41-.63-.81-.93-1.19-.04-.06-.06-.13-.04-.19s.06-.12.12-.17c.18-.11.35-.26.5-.43s.27-.37.38-.59c.11-.22.19-.44.25-.69.06-.24.08-.49.08-.74,0-.45-.07-.86-.22-1.23s-.36-.69-.62-.96c-.27-.27-.59-.48-.97-.63s-.79-.22-1.24-.22h-3.6c-.07,0-.14.03-.2.08-.05.06-.08.12-.08.2v7.92c0,.07.03.14.08.2.06.05.12.08.2.08h1.73c.07,0,.14-.03.2-.08.05-.06.08-.12.08-.2v-1.88c0-.07.03-.14.08-.2.06-.05.12-.08.2-.08h.25c.08,0,.16.02.24.07.08.04.15.09.2.15.24.34.48.67.72,1.01.24.33.48.66.73.98.05.06.11.11.2.15.09.04.17.07.25.07h2.15c.07,0,.13-.04.15-.11.02-.07,0-.14-.04-.2Zm-2.87-4.73c-.06.11-.13.2-.21.28-.08.07-.17.13-.28.16-.1.04-.19.05-.29.05h-1.22c-.07,0-.14-.02-.2-.08-.05-.06-.08-.12-.08-.2v-1.23c0-.07.03-.14.08-.2.06-.06.12-.08.2-.08h1.22c.16,0,.29.03.41.1s.2.15.27.24c.07.09.11.2.14.3.03.1.04.19.04.27,0,.15-.03.27-.08.38Z"/><path class="cls-1" d="m96.29,16c-.23-.53-.54-1-.94-1.4-.4-.39-.86-.71-1.4-.94-.53-.23-1.1-.35-1.7-.35s-1.17.12-1.7.35c-.53.23-1,.55-1.39.94-.39.4-.7.87-.94,1.4-.23.53-.35,1.1-.35,1.7s.12,1.17.35,1.7c.23.53.54,1,.94,1.39.39.4.86.71,1.39.95.53.23,1.1.35,1.7.35s1.17-.12,1.7-.35c.53-.23,1-.55,1.4-.95.4-.39.71-.86.94-1.39.23-.53.35-1.1.35-1.7s-.12-1.17-.35-1.7Zm-2.1,2.53c-.11.26-.26.5-.45.7-.19.2-.42.36-.67.48-.25.12-.52.18-.81.18s-.56-.06-.81-.18c-.25-.12-.48-.28-.66-.48-.19-.2-.34-.44-.44-.7s-.16-.54-.16-.83.06-.56.16-.82c.11-.27.26-.5.44-.69.19-.2.41-.36.66-.48.25-.12.52-.18.81-.18s.56.06.81.18c.25.12.48.28.67.48.19.2.35.43.45.69.11.27.16.54.16.82,0,.29-.05.57-.16.83Z"/><path class="cls-1" d="m112.29,5.26H15.17c-6.02,0-10.9,4.89-10.9,10.9v101.55c0,2.77,1.54,5.26,4.03,6.49l50.62,25.06c1.49.73,3.14,1.12,4.8,1.12s3.32-.39,4.8-1.12l50.63-25.06c2.49-1.23,4.02-3.71,4.02-6.49V16.16c0-6.01-4.89-10.9-10.9-10.9Zm10.72,112.46c0,2.68-1.51,5.13-3.92,6.31l-50.63,25.06c-1.49.74-3.1,1.11-4.72,1.11s-3.23-.37-4.72-1.11l-50.62-25.05c-2.4-1.19-3.93-3.64-3.93-6.32V16.16c0-5.92,4.8-10.72,10.72-10.72h97.11c5.91,0,10.72,4.79,10.72,10.72v101.55ZM115.94,0H11.52C5.16,0,0,5.16,0,11.52v109.2c0,2.88,1.63,5.51,4.21,6.79l54.44,26.94c1.6.79,3.34,1.19,5.07,1.19s3.47-.4,5.07-1.19l54.45-26.94c2.58-1.28,4.21-3.91,4.21-6.79V11.52c0-6.37-5.16-11.52-11.52-11.52Zm7.06,117.71c0,2.68-1.51,5.13-3.92,6.31l-50.63,25.06c-1.49.74-3.1,1.11-4.72,1.11s-3.23-.37-4.72-1.11l-50.62-25.05c-2.4-1.19-3.93-3.64-3.93-6.32V16.16c0-5.92,4.8-10.72,10.72-10.72h97.11c5.91,0,10.72,4.79,10.72,10.72v101.55Z"/><path class="cls-1" d="m118.26,15.81v100.54c0,2.66-1.39,5.07-3.6,6.25l-46.59,24.81c-1.36.73-2.85,1.1-4.34,1.1s-2.98-.36-4.34-1.1l-46.58-24.8c-2.21-1.18-3.61-3.6-3.61-6.26V15.81c0-5.08,3.32-9.32,7.74-10.36h2.63c-3.56,1.46-6.11,5.39-6.11,10.01v99.53c0,2.69,1.3,5.1,3.38,6.31l42.85,24.55c1.25.72,2.65,1.1,4.04,1.1s2.79-.38,4.04-1.1l42.86-24.56c2.08-1.19,3.37-3.6,3.37-6.3V15.46c0-4.62-2.55-8.55-6.11-10.01h2.63c4.42,1.04,7.74,5.28,7.74,10.36Z"/><path class="cls-1" d="m107.71,86.22c0-2.14-1.4-3.53-3.57-3.53-5.69,0-11.39,0-17.08,0-.36,0-.72-.04-1.17-.07,1.93-2.62,5.01-3.74,7.92-2.8,2.58.84,4.85.42,6.81-1.37,1.1-1.01,2.06-2.21,2.97-3.39.52-.68.9-1.49,1.24-2.28.12-.26.07-.76-.12-.95-.18-.2-.65-.24-.95-.16-.52.14-1.02.39-1.51.63-1.1.52-2.2,1.07-3.3,1.59-1.31.61-2.58.39-3.47-.75-.56-.73-1.04-1.55-1.37-2.41-.76-1.98-.29-3,1.62-3.85,1.58-.71,3.18-1.38,4.74-2.14.32-.15.62-.58.67-.91.03-.17-.5-.59-.81-.63-2.22-.28-4.46-.74-6.67-.65-3.33.14-5.12,1.77-5.86,4.76-.18.75-.22,1.53-.3,2.29-.16,1.5-.08,3.16-1.22,4.27-2.27,2.21-4.68,4.27-7.17,6.51-.05.07-.11.13-.16.16-.33.24-.76.11-.83.09.04-.27.11-.48.11-.69,0-4.63.02-9.26-.03-13.89,0-.41-.38-.92-.73-1.2-.38-.3-.92-.49-1.41-.56-3.02-.43-6.03-1-9.05-1.14-3.39-.16-6.81-.04-10.21.2-2.09.15-4.16.72-6.23,1.17-.93.2-1.42.73-1.4,1.84.07,4.4.02,8.81.03,13.22,0,.33.04.67.08,1.37q-.51-.4-.85-.63c-1.44-1.15-2.67-2.24-4-3.17-3.01-2.11-4.91-4.78-4.69-8.62v-.09c-.4-3.46-2.14-5.3-5.52-5.84-2.36-.39-4.67.04-6.97.55-.4.09-.73.5-1.09.76.3.33.59.68.93.97.18.16.46.22.69.32,1.35.6,2.71,1.18,4.06,1.8,1.46.67,1.83,1.32,1.61,2.9-.22,1.47-.92,2.72-2.05,3.68-.82.71-2.01.81-2.99.34-1.48-.71-2.95-1.46-4.46-2.1-.38-.17-.89-.03-1.35-.04,0,.45-.13.97.04,1.35,1.1,2.37,2.67,4.41,4.81,5.92,1.65,1.17,3.49,1.61,5.48.92.46-.15.93-.28,1.4-.38,2.33-.54,5.95,1.02,7.08,3.11h-17.88c-2.62,0-3.96,1.35-3.96,3.99,0,5.21,0,10.42,0,15.63,0,2.87,1.29,4.17,4.19,4.17,7.3,0,14.6,0,21.9,0h1.78c-1.43,2.24-5.05,3.69-7.39,3.34-1.36-.21-2.86-.28-4.16.08-3.3.9-4.78,3.69-6.02,6.57-.14.33.01.79.03,1.18.39-.04.82.01,1.16-.15,1.52-.71,2.99-1.49,4.49-2.23,1.1-.53,2.1-.27,2.9.57.46.48.87,1.05,1.16,1.64.86,1.78.32,3.2-1.45,4.04-1.34.64-2.68,1.25-3.99,1.93-.3.16-.5.52-.74.8.27.24.5.59.81.72,1.75.71,3.58,1.03,5.47.85,3.61-.34,6.18-2.89,6.36-6.47.12-2.39,1.04-4.39,2.73-5.98,1.78-1.66,3.7-3.18,5.57-4.75.74-.62,1.44-1.32,2.26-1.81.44-.26,1.1-.26,1.63-.17.15.02.29.79.25,1.19-.16,1.42-.49,2.88-1.58,3.85-1.23,1.09-2.65,1.97-4.06,2.85-.81.51-1.49.98-1.49,2.04,0,4.51-.06,9.01.06,13.51.02.76.65,1.65,1.24,2.22.53.52,2.44.03,3.1-.59,2.33,2.14,5.07,3.36,8.26,3.37,3.19.02,5.91-1.25,8.28-3.3.95,1.02,2.19.88,3.02.48.69-.32,1.36-1.47,1.39-2.28.13-4.43.07-8.87.06-13.31,0-.93-.45-1.58-1.3-1.97-.85-.38-1.7-.76-2.52-1.2-2.28-1.23-3.84-3.01-4.07-5.7-.03-.4.13-1.16.26-1.17.53-.05,1.23-.06,1.61.23,2.42,1.91,4.83,3.85,7.14,5.89,2.02,1.78,3.22,3.97,3.36,6.79.12,2.4,1.33,4.34,3.59,5.46,2.81,1.39,5.63,1,8.4-.11.91-.37.92-.87.07-1.32-1.43-.75-2.89-1.42-4.34-2.13-1.3-.63-1.96-2.17-1.41-3.51.29-.73.77-1.43,1.3-2.01.96-1.05,1.84-1.18,3.12-.55,1.47.72,2.92,1.5,4.4,2.2.29.14.85.19,1.03.02.19-.18.22-.74.09-1.03-.53-1.13-1.07-2.27-1.76-3.31-2.05-3.12-4.91-4.21-8.58-3.45-1.27.27-2.57.23-3.73-.5-.87-.54-1.72-1.11-2.57-1.7-.34-.24-.63-.56-.94-.84.47-.23.84-.26,1.22-.26,2.21,0,4.44,0,6.65,0,5.37,0,10.74-.04,16.12,0,2.43.02,3.84-1.83,3.81-3.77-.1-5.5-.03-11-.03-16.5Zm-83.21,16.15c0-5.24,0-10.48,0-15.72,0-2.09.75-2.93,2.65-2.93,12.2,0,24.41,0,36.61,0s24.4,0,36.61,0c1.68,0,2.44.85,2.45,2.73.01,5.37.01,10.74,0,16.11,0,2.1-.76,2.91-2.67,2.91H27.3c-2.01,0-2.8-.87-2.8-3.1Zm44.35-22.22c0-.69.33-.95.98-.75,1.5.45,3.01.9,4.49,1.4.91.3,1.8.7,2.98,1.18-.74.27-1.35.66-1.97.68-1.86.09-3.72.01-5.59.05-.67,0-.94-.26-.91-.91.03-.55.01-1.09,0-1.64Zm-5.11-15.03c2.32,0,4.34,2.08,4.33,4.43-.01,2.34-2.07,4.37-4.41,4.35-2.36-.02-4.32-2.04-4.3-4.43.02-2.38,2-4.35,4.39-4.34Zm-9.02,14.98c1.02-.35,2.1-.55,3.16-.73.19-.04.46.33.68.51.01.01,0,.06,0,.09-.04,3.31.44,2.65-2.45,2.7-1.38.03-2.76.07-4.14-.03-.58-.04-1.14-.42-1.92-.73,1.77-.7,3.19-1.33,4.66-1.82Zm15.65,42.6c0,3.58-2.71,6.33-6.24,6.33s-6.39-2.81-6.4-6.23c0-3.48,2.9-6.41,6.36-6.41,3.47,0,6.28,2.83,6.28,6.32Z"/><path class="cls-1" d="m78.25,55.24c0-.75-.06-1.58.02-2.4.08-.94-.35-1.48-1.17-1.74-.88-.29-1.77-.58-2.68-.74-6.41-1.08-12.86-1.06-19.3-.33-1.65.18-3.26.67-4.87,1.09-.38.1-.93.5-.96.81-.11,1.12-.05,2.26-.05,3.28,9.71-2.28,19.24-2.29,29.01.03Z"/><path class="cls-1" d="m78.09,59.15c.45-1.24.28-1.88-.92-2.28-1.39-.48-2.83-.87-4.28-1.08-5.1-.74-10.24-.87-15.38-.36-2.35.24-4.68.74-6.98,1.3-1.43.35-1.62,1.01-1.19,2.38,9.59-2.3,19.15-2.35,28.73.03Z"/><path class="cls-1" d="m78.13,63.05c.35-1.4.12-1.89-1.2-2.41-.44-.17-.91-.31-1.38-.42-3.86-.95-7.82-1.07-11.75-1.14-2.5-.04-5,.11-7.49.4-2.02.24-4.04.71-6,1.25-1.22.33-1.43,1.19-.93,2.25,9.6-2.21,19.13-2.3,28.75.06Z"/></svg>