<?xml version="1.0" encoding="UTF-8"?><svg id="Layer_1" xmlns="http://www.w3.org/2000/svg" viewBox="0 0 145.66 76.91"><defs><style>.cls-1{fill:#fff;}</style></defs><path class="cls-1" d="m111.28,59.56l-1.21,2.08h0s-3.4,5.89-3.4,5.89l-2,3.47-1.51,2.63-1.89,3.28h-20.04,0H0l1.89-3.28,1.14-1.98,4-6.93,2.98-5.16,1.9-3.28,1.62-2.81,1.89-3.28,1.89-3.28,3.52-6.1,4.6-7.97.26-.45,3.26-5.65,1.89-3.28,3.52-6.1,2.41-4.18,2.19-3.79,3.52-6.1,1.89-3.28h20.03l-1.63,2.83-.26.45-8.12,14.07-1.89,3.28-1.63,2.81-1.89,3.28-8.12,14.07-1.89,3.28-1.63,2.81-1.89,3.28-1.89,3.28-3.52,6.1h81.22Z"/><path class="cls-1" d="m145.66,0l-1.66,2.87-.24.41-2.85,4.94-5.27,9.13-1.89,3.28-1.63,2.81-1.59,2.76-.3.52-3.54,6.13-4.59,7.94-1.89,3.28-1.62,2.81-1.9,3.28-1.89,3.28h-20.03l3.79-6.57,3.52-6.1,1.37-2.37,3.23-5.6.24-.41,3.28-5.69,1.89-3.28,3.52-6.1h-7.04l-1.9,3.28-1.62,2.81-1.89,3.28-.33.57-3.13,5.43-4.66,8.07-1.89,3.28-1.63,2.81-1.89,3.28-1.05,1.82h0s-.84,1.46-.84,1.46h-20.03l1.89-3.28.44-.75,1.46-2.53,2.56-4.43h0s.96-1.66.96-1.66l4.6-7.97,3.52-6.1,1.62-2.8.28-.48,2.84-4.92.68-1.17h-7.04l-.07.13-1.82,3.16-1.61,2.79v.02s-1.91,3.28-1.91,3.28l-8.12,14.07-1.89,3.28-1.62,2.81-3.79,6.57h-20.04l1.9-3.28,1.89-3.28,3.52-6.1h.04s.02-.08.04-.13l4.53-7.85,2.89-5.01c.25-.28.51-.54.78-.81l-.15-.27,1.89-3.28,3.52-6.1,4.6-7.97,3.52-6.1,1.47-2.54.43-.75h74.18Z"/></svg>