<?xml version="1.0" encoding="UTF-8"?><svg id="Layer_1" xmlns="http://www.w3.org/2000/svg" xmlns:xlink="http://www.w3.org/1999/xlink" viewBox="0 0 507.79 508.89"><defs><style>.cls-1{fill:url(#linear-gradient);}.cls-2{opacity:.29;}</style><linearGradient id="linear-gradient" x1="0" y1="1658.45" x2="507.79" y2="1658.45" gradientTransform="translate(0 -1404)" gradientUnits="userSpaceOnUse"><stop offset="0" stop-color="#5300bc"/><stop offset=".48" stop-color="#5300bc" stop-opacity=".48"/><stop offset=".83" stop-color="#5300bc" stop-opacity=".14"/><stop offset="1" stop-color="#5300bc" stop-opacity="0"/></linearGradient></defs><g class="cls-2"><path class="cls-1" d="m269.72,508.89h-30.75c-1.61-.29-3.21-.72-4.83-.84-31.65-2.38-61.81-10.45-90.32-24.33C34.24,430.35-21.79,309.67,7.88,191.3,32,95.06,112.5,20.43,210.13,3.91c9.24-1.56,18.57-2.62,27.85-3.91h31.74c1.27.29,2.52.74,3.8.84,39.54,3.01,76.54,14.44,110.3,35.15,65.88,40.43,106.01,98.95,120.1,175.15,1.73,9.38,2.6,18.92,3.87,28.39v29.82c-.29,1.59-.62,3.18-.86,4.78-1.71,11.6-2.79,23.34-5.18,34.8-20.66,99.11-104.34,179.53-203.72,196-9.4,1.56-18.88,2.65-28.32,3.96h.01Zm-31.98-365.76h-4.56c-23.46,0-46.92.09-70.37-.09-3.65-.03-5.33,1.04-6.02,4.59-3.56,18.32-7.71,36.54-10.73,54.94-1.92,11.66-2.23,23.59-3.27,35.6h94.96v-95.04h-.01Zm.06,127.56h-94.44c-.89,19.84,7.26,72.41,13.91,92.24,1.09,3.26,3.04,2.84,5.27,2.84,23.79,0,47.57.01,71.36,0,1.26,0,2.52-.2,3.9-.32v-94.76h0Zm32.11-32.45h94.27c.18-.61.36-.92.35-1.22-1.24-30.68-5.71-60.86-13.95-90.47-.92-3.31-2.69-3.45-5.35-3.44-23.79.05-47.57.03-71.36.04-1.27,0-2.54.16-3.97.25v94.84h.01Zm.15,32.29v95.25h4.73c23.29,0,46.58-.11,69.87.11,3.92.04,5.62-1.25,6.29-4.88,3.91-21.1,8.18-42.15,11.71-63.31,1.47-8.85,1.41-17.95,2.07-27.16h-94.67Zm-158.8-32.25c1.21-32.12,5.36-63.67,13.64-95.14h-4.77c-18.17,0-36.34.1-54.51-.09-3.35-.04-4.93,1.17-6.45,3.97-9.41,17.39-16.77,35.6-21.16,54.86-2.7,11.84-4.3,23.94-6.48,36.4h79.73Zm0,32.35H32.89c-.18.57-.35.87-.36,1.17,0,.99,0,1.99.08,2.97,2.91,31.39,11.98,60.87,27.46,88.31.79,1.4,3.31,2.55,5.04,2.58,15.03.2,30.06.12,45.09.12h14.69c-8.28-31.46-12.43-63.03-13.64-95.14h0Zm271.55-127.5c8.25,31.43,12.43,62.99,13.62,95.16h78.7c0-1.05.06-1.84,0-2.63-2.6-32.12-11.91-62.19-27.77-90.19-.68-1.2-2.78-2.19-4.26-2.23-7.26-.23-14.53-.1-21.8-.1h-38.5,0Zm13.62,127.44c-1.19,32.29-5.4,63.83-13.61,95.19,20.82,0,41.12.07,61.43-.16,1.37-.02,3.16-2.02,4-3.52,10.03-18,17.58-37.01,21.89-57.18,2.4-11.21,3.96-22.6,5.98-34.34h-79.69Zm-126.37-236.6v77.08h68.21c-15.4-32.55-32.26-62.75-68.21-77.08Zm-100.58,77.01h68.27V33.93c-36.03,14.41-52.93,44.58-68.27,77.06h0Zm-.02,286.83c15.36,32.56,32.29,62.7,68.23,77.11v-77.11h-68.23Zm100.28-.11v72.83c0,1.13.14,2.25.21,3.39,22.23-2.69,63.76-49.83,67.24-76.21h-67.46.01Zm154.29-.13c-17.16,0-33.14-.07-49.1.14-1.21.02-2.87,1.83-3.5,3.19-3.14,6.74-5.57,13.83-9.06,20.37-6.82,12.76-14.19,25.22-21.44,37.99,32.05-13.76,59.49-33.98,83.1-61.69ZM83.66,111.32c16.49,0,31.67-.14,46.85.1,3.65.06,5.13-1.26,6.36-4.49,6.49-17.05,14.75-33.22,24.87-48.41,1.86-2.78,3.8-5.51,5.7-8.26-32.8,13.2-60.23,33.41-83.79,61.06,0,0,.01,0,.01,0Zm83.71,348.14c-.2-.98-.17-1.33-.33-1.54-12.97-17.72-22.85-37.1-31.03-57.43-.56-1.38-3.07-2.77-4.7-2.8-14.7-.21-29.41-.13-44.11-.1-.87,0-1.73.3-3.05.54,23.18,27.1,50.56,47.39,83.22,61.34h0ZM423.93,111.32c-23.64-27.57-50.92-47.9-83.36-61.23,12.96,18.26,22.96,37.91,31.16,58.55.46,1.16,2.23,2.55,3.41,2.56,15.82.17,31.64.11,48.79.11h0Z"/></g></svg>